<!DOCTYPE svg PUBLIC "-//W3C//DTD SVG 20010904//EN" "http://www.w3.org/TR/2001/REC-SVG-20010904/DTD/svg10.dtd">
<svg version="1.0" xmlns="http://www.w3.org/2000/svg" width="432px" height="73px" viewBox="0 0 4320 730" preserveAspectRatio="xMidYMid meet">
<g id="layer1" fill="#eb7e37" stroke="none">
 <path d="M2193 631 c-44 -45 -53 -60 -53 -90 l0 -36 56 56 c49 49 55 60 52 90 l-3 34 -52 -54z"/>
 <path d="M2193 491 c-44 -45 -53 -60 -53 -90 l0 -36 56 56 c49 49 55 60 52 90 l-3 34 -52 -54z"/>
 <path d="M2193 351 c-44 -45 -53 -60 -53 -90 l0 -36 56 56 c49 49 55 60 52 90 l-3 34 -52 -54z"/>
 <path d="M2193 221 c-44 -45 -53 -60 -53 -90 l0 -36 56 56 c49 49 55 60 52 90 l-3 34 -52 -54z"/>
 </g>
<g id="layer2" fill="#09569d" stroke="none">
 <path d="M653 685 c-27 -16 -49 -41 -63 -69 -20 -42 -21 -57 -18 -269 3 -219 3 -224 28 -260 39 -57 89 -80 165 -75 113 7 168 73 163 195 l-3 68 -58 3 c-72 4 -87 -7 -87 -63 0 -50 -21 -75 -45 -55 -12 10 -15 46 -15 205 0 169 2 194 16 199 28 11 43 -13 46 -72 l3 -57 73 -3 72 -3 0 77 c0 135 -51 196 -169 202 -57 2 -72 -1 -108 -23z m210 -44 c40 -40 42 -43 45 -116 l4 -75 -51 0 -51 0 0 41 c0 63 -24 99 -67 99 -46 0 -53 -30 -53 -222 0 -178 7 -224 35 -234 44 -17 85 24 85 86 0 29 1 30 50 30 l50 0 0 -50 c0 -59 -15 -93 -60 -135 -28 -27 -38 -30 -95 -30 -69 0 -99 15 -139 69 -19 25 -21 44 -24 219 -4 233 0 267 40 312 36 41 75 55 141 51 42 -3 55 -9 90 -45z"/>
 <path d="M1033 685 c-26 -16 -49 -41 -62 -68 -19 -40 -21 -61 -21 -257 0 -197 2 -217 21 -257 14 -29 35 -52 65 -69 61 -36 154 -32 206 8 64 48 68 69 68 318 0 249 -4 269 -68 318 -28 21 -48 27 -101 30 -57 2 -72 -1 -108 -23z m178 -18 c18 -12 44 -38 56 -56 22 -33 23 -42 23 -251 0 -209 -1 -218 -23 -251 -12 -18 -38 -44 -57 -57 -30 -20 -43 -23 -89 -18 -58 5 -91 24 -125 70 -19 25 -21 44 -24 219 -2 105 -1 211 3 235 16 107 148 168 236 109z"/>
 <path d="M1087 572 c-15 -16 -17 -46 -17 -214 0 -176 2 -196 18 -211 23 -21 52 -22 78 -3 18 13 19 28 19 216 0 188 -1 203 -19 216 -27 19 -60 18 -79 -4z m61 -14 c8 -8 12 -67 12 -199 0 -154 -3 -189 -15 -199 -12 -10 -18 -10 -30 0 -12 10 -15 45 -15 199 0 177 5 211 30 211 3 0 11 -5 18 -12z"/>
 <path d="M1335 698 c-3 -7 -4 -164 -3 -348 l3 -335 120 -3 c144 -3 177 9 213 78 18 37 22 60 22 141 0 82 -3 103 -24 141 l-24 45 35 133 c19 72 32 138 29 146 -4 10 -24 14 -75 14 l-70 0 -10 -37 c-6 -21 -17 -69 -26 -108 -33 -146 -44 -142 -47 18 l-3 122 -68 3 c-48 2 -69 -1 -72 -10z m115 -133 l0 -125 34 0 34 0 29 123 29 122 58 3 c52 3 57 1 52 -15 -46 -162 -68 -267 -58 -282 29 -41 42 -88 42 -155 0 -92 -13 -135 -50 -171 -29 -28 -34 -29 -150 -33 l-120 -4 0 331 0 331 50 0 50 0 0 -125z"/>
 <path d="M1450 235 l0 -105 44 0 c60 0 76 23 76 111 0 80 -15 99 -78 99 l-42 0 0 -105z m84 69 c11 -10 16 -34 16 -69 0 -57 -16 -85 -51 -85 -17 0 -19 8 -19 85 0 77 2 85 19 85 11 0 27 -7 35 -16z"/>
 <path d="M1832 693 c-18 -9 -44 -30 -57 -48 -28 -36 -53 -131 -39 -145 5 -5 36 -11 68 -12 58 -3 59 -3 70 29 6 18 19 40 29 50 16 17 18 16 38 -4 34 -34 18 -67 -76 -158 -93 -88 -124 -143 -125 -215 0 -59 35 -128 79 -157 40 -27 132 -31 185 -9 44 18 86 75 93 124 6 47 0 52 -71 59 -52 5 -53 5 -74 -31 -24 -41 -37 -45 -52 -15 -21 38 -2 74 79 151 95 90 125 142 125 218 1 70 -37 140 -88 164 -44 21 -141 21 -184 -1z m185 -28 c63 -42 83 -148 42 -222 -12 -21 -57 -72 -100 -114 -86 -84 -106 -129 -78 -178 23 -40 70 -36 88 7 14 32 16 32 60 26 25 -4 48 -8 50 -10 8 -7 -30 -92 -48 -108 -24 -22 -119 -41 -156 -32 -16 4 -46 24 -67 45 -36 37 -38 41 -38 105 0 37 5 77 11 89 6 12 52 63 101 113 82 83 91 96 95 137 5 40 3 47 -21 62 -38 25 -71 13 -92 -35 -17 -39 -19 -40 -66 -40 l-47 0 6 33 c12 66 64 131 113 140 42 9 121 -1 147 -18z"/>
 <path d="M2125 698 c-3 -7 -4 -164 -3 -348 l3 -335 70 0 70 0 0 345 0 345 -68 3 c-48 2 -69 -1 -72 -10z m120 -255 c-1 -137 -3 -285 -3 -330 l-2 -83 -50 0 -50 0 0 330 0 330 53 0 53 0 -1 -247z"/>
 <path d="M2392 693 c-18 -9 -44 -30 -57 -48 -28 -36 -53 -131 -39 -145 5 -5 36 -11 68 -12 58 -3 59 -3 70 29 6 18 19 40 29 50 16 17 18 16 38 -4 34 -34 18 -67 -76 -158 -93 -88 -124 -143 -125 -215 0 -59 35 -128 79 -157 40 -27 132 -31 185 -9 44 18 86 75 93 124 6 47 0 52 -71 59 -52 5 -53 5 -74 -31 -24 -41 -37 -45 -52 -15 -21 38 -2 74 79 151 95 90 125 142 125 218 1 70 -37 140 -88 164 -44 21 -141 21 -184 -1z m185 -28 c63 -42 83 -148 42 -222 -12 -21 -57 -72 -100 -114 -86 -84 -106 -129 -78 -178 23 -40 70 -36 88 7 14 32 16 32 60 26 25 -4 48 -8 50 -10 8 -7 -30 -92 -48 -108 -24 -22 -119 -41 -156 -32 -16 4 -46 24 -67 45 -36 37 -38 41 -38 105 0 37 5 77 11 89 6 12 52 63 101 113 82 83 91 96 95 137 5 40 3 47 -21 62 -38 25 -71 13 -92 -35 -17 -39 -19 -40 -66 -40 l-47 0 6 33 c12 66 64 131 113 140 42 9 121 -1 147 -18z"/>
 <path d="M2685 698 c-3 -7 -4 -164 -3 -348 l3 -335 70 0 70 0 3 277 2 277 83 3 82 3 0 65 0 65 -153 3 c-117 2 -154 0 -157 -10z m285 -58 l0 -50 -85 0 -85 0 0 -280 0 -280 -50 0 -50 0 0 330 0 330 135 0 135 0 0 -50z"/>
 <path d="M3025 698 c-3 -7 -4 -164 -3 -348 l3 -335 160 0 160 0 0 65 0 65 -87 3 -88 3 0 69 0 69 63 3 62 3 0 65 0 65 -62 3 -63 3 0 69 0 69 88 3 87 3 0 65 0 65 -158 3 c-121 2 -159 0 -162 -10z m305 -58 l0 -50 -95 0 -95 0 0 -90 0 -90 70 0 70 0 0 -50 0 -50 -70 0 -70 0 0 -90 0 -90 95 0 95 0 0 -50 0 -50 -145 0 -145 0 0 330 0 330 145 0 145 0 0 -50z"/>
 <path d="M3472 693 c-18 -9 -44 -30 -57 -48 -28 -36 -53 -131 -39 -145 5 -5 36 -11 68 -12 58 -3 59 -3 70 29 6 18 19 40 29 50 16 17 18 16 38 -4 34 -34 18 -67 -76 -158 -93 -88 -124 -143 -125 -215 0 -59 35 -128 79 -157 40 -27 132 -31 185 -9 44 18 86 75 93 124 6 47 0 52 -71 59 -52 5 -53 5 -74 -31 -24 -41 -37 -45 -52 -15 -21 38 -2 74 79 151 95 90 125 142 125 218 1 70 -37 140 -88 164 -44 21 -141 21 -184 -1z m185 -28 c63 -42 83 -148 42 -222 -12 -21 -57 -72 -100 -114 -86 -84 -106 -129 -78 -178 23 -40 70 -36 88 7 14 32 16 32 60 26 25 -4 48 -8 50 -10 8 -7 -30 -92 -48 -108 -24 -22 -119 -41 -156 -32 -16 4 -46 24 -67 45 -36 37 -38 41 -38 105 0 37 5 77 11 89 6 12 52 63 101 113 82 83 91 96 95 137 5 40 3 47 -21 62 -38 25 -71 13 -92 -35 -17 -39 -19 -40 -66 -40 l-47 0 6 33 c12 66 64 131 113 140 42 9 121 -1 147 -18z"/>
 </g>
<g id="layer3" fill="#f8f9fb" stroke="none">
 <path d="M694 680 c-46 -14 -91 -71 -99 -122 -4 -24 -5 -130 -3 -235 3 -175 5 -194 24 -219 40 -54 70 -69 139 -69 57 0 67 3 95 30 45 42 60 76 60 135 l0 50 -50 0 c-49 0 -50 -1 -50 -30 0 -62 -41 -103 -85 -86 -28 10 -35 56 -35 234 0 192 7 222 53 222 43 0 67 -36 67 -99 l0 -41 51 0 51 0 -4 75 c-3 73 -5 76 -45 116 -35 36 -48 42 -90 45 -26 2 -62 -1 -79 -6z"/>
 <path d="M1074 679 c-46 -13 -91 -69 -99 -121 -4 -24 -5 -130 -3 -235 3 -175 5 -194 24 -219 34 -46 67 -65 125 -70 46 -5 59 -2 89 18 19 13 45 39 57 57 22 33 23 42 23 251 0 209 -1 218 -23 251 -47 70 -110 92 -193 68z m92 -103 c18 -13 19 -28 19 -216 0 -188 -1 -203 -19 -216 -26 -19 -55 -18 -78 3 -16 15 -18 35 -18 211 0 168 2 198 17 214 19 22 52 23 79 4z"/>
 <path d="M1350 359 l0 -331 120 4 c116 4 121 5 150 33 37 36 50 79 50 171 0 67 -13 114 -42 155 -10 15 12 120 58 282 5 16 0 18 -52 15 l-58 -3 -29 -122 -29 -123 -34 0 -34 0 0 125 0 125 -50 0 -50 0 0 -331z m202 -36 c14 -12 18 -31 18 -82 0 -88 -16 -111 -76 -111 l-44 0 0 105 0 105 42 0 c24 0 49 -7 60 -17z"/>
 <path d="M1870 683 c-49 -9 -101 -74 -113 -140 l-6 -33 47 0 c47 0 49 1 66 40 21 48 54 60 92 35 24 -15 26 -22 21 -62 -4 -41 -13 -54 -95 -137 -49 -50 -95 -101 -101 -113 -6 -12 -11 -52 -11 -89 0 -64 2 -68 38 -105 21 -21 51 -41 67 -45 37 -9 132 10 156 32 18 16 56 101 48 108 -2 2 -25 6 -50 10 -44 6 -46 6 -60 -26 -18 -43 -65 -47 -88 -7 -28 49 -8 94 78 178 43 42 88 93 100 114 41 74 21 180 -42 222 -26 17 -105 27 -147 18z"/>
 <path d="M2140 640 c0 -27 4 -50 8 -50 10 0 92 83 92 93 0 4 -22 7 -50 7 l-50 0 0 -50z"/>
 <path d="M2430 683 c-49 -9 -101 -74 -113 -140 l-6 -33 47 0 c47 0 49 1 66 40 21 48 54 60 92 35 24 -15 26 -22 21 -62 -4 -41 -13 -54 -95 -137 -49 -50 -95 -101 -101 -113 -6 -12 -11 -52 -11 -89 0 -64 2 -68 38 -105 21 -21 51 -41 67 -45 37 -9 132 10 156 32 18 16 56 101 48 108 -2 2 -25 6 -50 10 -44 6 -46 6 -60 -26 -18 -43 -65 -47 -88 -7 -28 49 -8 94 78 178 43 42 88 93 100 114 41 74 21 180 -42 222 -26 17 -105 27 -147 18z"/>
 <path d="M2700 360 l0 -330 50 0 50 0 0 280 0 280 85 0 85 0 0 50 0 50 -135 0 -135 0 0 -330z"/>
 <path d="M3040 360 l0 -330 145 0 145 0 0 50 0 50 -95 0 -95 0 0 90 0 90 70 0 70 0 0 50 0 50 -70 0 -70 0 0 90 0 90 95 0 95 0 0 50 0 50 -145 0 -145 0 0 -330z"/>
 <path d="M3510 683 c-49 -9 -101 -74 -113 -140 l-6 -33 47 0 c47 0 49 1 66 40 21 48 54 60 92 35 24 -15 26 -22 21 -62 -4 -41 -13 -54 -95 -137 -49 -50 -95 -101 -101 -113 -6 -12 -11 -52 -11 -89 0 -64 2 -68 38 -105 21 -21 51 -41 67 -45 37 -9 132 10 156 32 18 16 56 101 48 108 -2 2 -25 6 -50 10 -44 6 -46 6 -60 -26 -18 -43 -65 -47 -88 -7 -28 49 -8 94 78 178 43 42 88 93 100 114 41 74 21 180 -42 222 -26 17 -105 27 -147 18z"/>
 <path d="M2188 553 c-34 -34 -48 -57 -48 -76 0 -15 4 -27 8 -27 4 0 27 20 51 44 35 36 42 49 39 75 l-3 32 -47 -48z"/>
 <path d="M2188 413 c-34 -34 -48 -57 -48 -76 0 -15 4 -27 8 -27 4 0 27 20 51 44 35 36 42 49 39 75 l-3 32 -47 -48z"/>
 <path d="M2188 273 c-28 -29 -48 -58 -48 -71 0 -31 10 -28 59 22 33 33 42 50 39 70 -3 27 -3 27 -50 -21z"/>
 <path d="M2187 142 c-36 -37 -47 -55 -47 -80 0 -32 0 -32 50 -32 l50 0 0 80 c0 44 -1 80 -3 80 -1 0 -24 -22 -50 -48z"/>
 </g>

</svg>