<!DOCTYPE svg PUBLIC "-//W3C//DTD SVG 20010904//EN" "http://www.w3.org/TR/2001/REC-SVG-20010904/DTD/svg10.dtd">
<svg version="1.0" xmlns="http://www.w3.org/2000/svg" width="432px" height="73px" viewBox="0 0 4320 730" preserveAspectRatio="xMidYMid meet">
<g id="layer1" fill="#eb7e37" stroke="none">
 <path d="M2193 631 c-44 -45 -53 -60 -53 -90 l0 -36 56 56 c49 49 55 60 52 90 l-3 34 -52 -54z"/>
 <path d="M2193 491 c-44 -45 -53 -60 -53 -90 l0 -36 56 56 c49 49 55 60 52 90 l-3 34 -52 -54z"/>
 <path d="M2193 351 c-44 -45 -53 -60 -53 -90 l0 -36 56 56 c49 49 55 60 52 90 l-3 34 -52 -54z"/>
 <path d="M2193 221 c-44 -45 -53 -60 -53 -90 l0 -36 56 56 c49 49 55 60 52 90 l-3 34 -52 -54z"/>
 </g>
<g id="layer2" fill="#09569d" stroke="none">
 <path d="M673 684 c-40 -19 -57 -35 -72 -68 -19 -39 -21 -61 -21 -254 0 -235 5 -259 59 -305 124 -104 292 -12 291 160 0 47 -11 54 -76 51 l-59 -3 -5 -49 c-6 -56 -28 -79 -57 -60 -16 10 -18 32 -18 210 l0 199 23 3 c37 6 52 -15 52 -73 0 -60 6 -65 74 -65 52 0 66 13 66 63 0 104 -48 181 -127 205 -57 17 -72 15 -130 -14z m174 -22 c43 -30 63 -79 63 -151 l0 -61 -55 0 -55 0 0 53 c0 41 -5 58 -20 72 -26 23 -68 13 -80 -21 -13 -33 -13 -355 0 -388 5 -15 20 -28 35 -32 38 -10 63 18 67 75 l3 46 53 3 52 3 0 -56 c0 -108 -51 -166 -149 -173 -62 -4 -105 17 -145 71 -20 27 -21 41 -21 257 0 255 0 257 76 308 44 31 129 28 176 -6z"/>
 <path d="M1053 684 c-40 -19 -57 -35 -72 -68 -19 -39 -21 -61 -21 -256 0 -195 2 -217 21 -256 15 -33 32 -49 72 -68 58 -29 73 -31 130 -14 55 17 101 65 116 121 14 60 14 374 0 434 -15 56 -61 104 -116 121 -57 17 -72 15 -130 -14z m151 -9 c18 -9 44 -30 57 -48 24 -32 24 -34 24 -267 0 -233 0 -235 -24 -267 -67 -89 -196 -84 -265 10 -20 27 -21 41 -21 257 0 216 1 230 21 257 51 69 135 92 208 58z"/>
 <path d="M1094 576 c-17 -13 -19 -30 -22 -198 -2 -109 1 -194 7 -211 13 -35 55 -46 81 -22 19 17 20 32 20 215 0 178 -2 198 -18 213 -23 21 -42 21 -68 3z m65 -20 c8 -9 11 -71 9 -201 -3 -166 -5 -189 -20 -199 -13 -8 -23 -8 -35 0 -16 10 -18 33 -21 199 -3 194 1 215 38 215 10 0 23 -6 29 -14z"/>
 <path d="M1353 703 c-10 -4 -13 -82 -13 -344 l0 -339 25 -6 c13 -3 64 -4 112 -2 165 7 202 48 203 223 0 87 -3 105 -24 139 l-23 38 35 140 c29 117 33 141 21 149 -21 13 -105 11 -116 -3 -6 -7 -23 -64 -38 -125 -23 -94 -30 -113 -46 -113 -18 0 -19 9 -19 119 0 99 -3 120 -16 125 -18 7 -83 7 -101 -1z m107 -138 l0 -125 29 0 c29 0 29 1 58 123 l28 122 59 3 c45 2 57 0 54 -10 -3 -7 -20 -72 -38 -144 l-33 -130 24 -33 c21 -28 24 -46 27 -127 3 -80 1 -100 -17 -138 -31 -63 -64 -76 -195 -76 l-106 0 0 330 0 330 55 0 55 0 0 -125z"/>
 <path d="M1460 235 l0 -105 35 0 c56 0 75 27 75 105 0 78 -19 105 -75 105 l-35 0 0 -105z m85 0 l0 -80 -37 -3 -38 -3 0 86 0 86 38 -3 37 -3 0 -80z"/>
 <path d="M1865 698 c-71 -26 -109 -75 -122 -155 -7 -43 5 -53 69 -53 44 0 48 2 54 28 15 61 61 81 90 37 24 -37 5 -73 -81 -150 -120 -107 -153 -206 -102 -305 29 -59 75 -85 147 -84 64 0 109 21 140 64 23 32 39 110 24 110 -5 1 -28 5 -51 9 -47 9 -51 7 -76 -32 -21 -32 -52 -35 -67 -6 -21 38 -2 74 81 153 87 83 129 154 129 217 0 56 -44 134 -88 155 -46 21 -108 27 -147 12z m161 -38 c38 -37 56 -78 56 -130 0 -65 -30 -117 -111 -191 -100 -92 -124 -149 -83 -199 25 -31 65 -21 82 20 13 31 24 35 80 24 29 -6 31 -9 26 -36 -15 -74 -76 -118 -163 -118 -63 0 -109 28 -133 83 -43 93 -17 161 104 279 51 50 87 95 92 112 10 41 -6 79 -39 90 -22 8 -31 6 -51 -13 -14 -13 -28 -37 -31 -53 -7 -28 -8 -29 -53 -22 -26 4 -48 8 -50 9 -2 2 2 23 8 46 26 94 78 132 177 126 50 -2 68 -8 89 -27z"/>
 <path d="M2143 703 c-10 -4 -13 -82 -13 -343 0 -373 -4 -350 65 -350 69 0 65 -23 65 350 0 375 5 351 -68 349 -20 0 -43 -3 -49 -6z m107 -343 l0 -330 -55 0 -55 0 0 330 0 330 55 0 55 0 0 -330z"/>
 <path d="M2425 698 c-71 -26 -109 -75 -122 -155 -7 -43 5 -53 69 -53 44 0 48 2 54 28 15 61 61 81 90 37 24 -37 5 -73 -81 -150 -120 -107 -153 -206 -102 -305 29 -59 75 -85 147 -84 64 0 109 21 140 64 23 32 39 110 24 110 -5 1 -28 5 -51 9 -47 9 -51 7 -76 -32 -21 -32 -52 -35 -67 -6 -21 38 -2 74 81 153 87 83 129 154 129 217 0 56 -44 134 -88 155 -46 21 -108 27 -147 12z m161 -38 c38 -37 56 -78 56 -130 0 -65 -30 -117 -111 -191 -100 -92 -124 -149 -83 -199 25 -31 65 -21 82 20 13 31 24 35 80 24 29 -6 31 -9 26 -36 -15 -74 -76 -118 -163 -118 -63 0 -109 28 -133 83 -43 93 -17 161 104 279 51 50 87 95 92 112 10 41 -6 79 -39 90 -22 8 -31 6 -51 -13 -14 -13 -28 -37 -31 -53 -7 -28 -8 -29 -53 -22 -26 4 -48 8 -50 9 -2 2 2 23 8 46 26 94 78 132 177 126 50 -2 68 -8 89 -27z"/>
 <path d="M2703 703 c-10 -4 -13 -82 -13 -343 0 -373 -4 -350 65 -350 69 0 65 -16 65 286 l0 274 69 0 c99 0 101 2 101 70 0 44 -4 59 -16 64 -19 7 -253 7 -271 -1z m277 -63 l0 -50 -85 0 -85 0 0 -280 0 -280 -55 0 -55 0 0 330 0 330 140 0 140 0 0 -50z"/>
 <path d="M3043 703 c-10 -4 -13 -82 -13 -343 0 -299 2 -339 16 -344 20 -8 258 -8 278 0 12 5 16 20 16 64 0 69 -2 70 -106 70 l-74 0 0 70 0 70 49 0 c77 0 81 4 81 70 0 66 -4 70 -81 70 l-49 0 0 70 0 70 74 0 c104 0 106 1 106 70 0 44 -4 59 -16 64 -19 7 -263 7 -281 -1z m287 -63 l0 -50 -90 0 -90 0 0 -90 0 -90 65 0 65 0 0 -50 0 -50 -65 0 -65 0 0 -90 0 -90 90 0 90 0 0 -50 0 -50 -145 0 -145 0 0 330 0 330 145 0 145 0 0 -50z"/>
 <path d="M3505 698 c-71 -26 -109 -75 -122 -155 -7 -43 5 -53 69 -53 44 0 48 2 54 28 15 61 61 81 90 37 24 -37 5 -73 -81 -150 -120 -107 -153 -206 -102 -305 29 -59 75 -85 147 -84 64 0 109 21 140 64 23 32 39 110 24 110 -5 1 -28 5 -51 9 -47 9 -51 7 -76 -32 -21 -32 -52 -35 -67 -6 -21 38 -2 74 81 153 87 83 129 154 129 217 0 56 -44 134 -88 155 -46 21 -108 27 -147 12z m161 -38 c38 -37 56 -78 56 -130 0 -65 -30 -117 -111 -191 -100 -92 -124 -149 -83 -199 25 -31 65 -21 82 20 13 31 24 35 80 24 29 -6 31 -9 26 -36 -15 -74 -76 -118 -163 -118 -63 0 -109 28 -133 83 -43 93 -17 161 104 279 51 50 87 95 92 112 10 41 -6 79 -39 90 -22 8 -31 6 -51 -13 -14 -13 -28 -37 -31 -53 -7 -28 -8 -29 -53 -22 -26 4 -48 8 -50 9 -2 2 2 23 8 46 26 94 78 132 177 126 50 -2 68 -8 89 -27z"/>
 </g>
<g id="layer3" fill="#fefefe" stroke="none">
 <path d="M643 695 c-27 -16 -49 -41 -63 -69 -20 -42 -21 -56 -18 -278 3 -231 3 -235 28 -271 40 -59 88 -80 174 -75 60 3 79 8 108 30 19 15 43 43 52 63 l18 37 20 -41 c13 -27 36 -51 64 -67 39 -23 53 -26 118 -22 61 3 79 8 109 30 19 15 41 41 49 58 l13 31 5 -58 5 -58 130 -3 c155 -3 186 8 223 78 19 38 22 60 22 149 0 86 -4 112 -21 149 l-22 44 33 132 c19 73 31 140 27 149 -5 14 -20 17 -86 17 l-80 0 -10 -37 c-6 -21 -19 -74 -28 -118 l-18 -80 -5 115 -5 115 -80 0 -80 0 -5 -58 -5 -58 -13 31 c-8 17 -30 43 -49 58 -30 22 -48 27 -109 30 -65 4 -79 1 -118 -22 -28 -16 -51 -40 -64 -67 l-20 -41 -18 37 c-9 20 -33 48 -52 63 -30 23 -47 27 -111 30 -67 3 -81 0 -118 -23z m180 1 c43 -17 95 -78 102 -118 3 -18 5 -58 3 -88 l-3 -55 -58 -3 c-34 -2 -65 2 -72 8 -8 7 -15 36 -17 68 -2 45 -7 57 -21 60 -43 8 -47 -10 -47 -208 0 -198 4 -216 47 -208 14 2 19 16 23 56 3 31 12 57 20 62 22 14 104 12 118 -2 15 -15 16 -107 1 -145 -36 -95 -156 -141 -247 -94 -90 46 -101 83 -101 331 0 203 7 249 46 292 47 53 139 72 206 44z m380 0 c39 -16 82 -61 96 -99 7 -17 11 -114 11 -237 0 -123 -4 -220 -11 -237 -36 -95 -156 -141 -247 -94 -90 46 -101 83 -101 331 0 203 7 249 46 292 48 53 140 73 206 44z m265 2 c8 -8 12 -51 12 -126 0 -148 14 -144 54 14 l31 119 58 3 c90 5 90 3 50 -154 l-34 -136 27 -54 c24 -49 26 -62 22 -147 -4 -102 -20 -143 -71 -181 -24 -18 -45 -21 -143 -24 -80 -3 -119 0 -129 8 -13 10 -15 65 -15 339 0 241 3 330 12 339 16 16 110 16 126 0z m-698 -213 l5 -60 83 -3 82 -3 0 -67 0 -67 -73 3 c-85 4 -94 -2 -99 -68 -2 -32 -7 -45 -18 -45 -13 0 -15 29 -18 188 -2 176 -1 188 15 185 14 -2 19 -16 23 -63z"/>
 <path d="M680 667 c-77 -40 -81 -58 -78 -317 3 -254 5 -261 84 -300 52 -26 79 -25 134 3 54 27 80 68 87 142 l6 55 -52 0 -51 0 0 -43 c0 -50 -22 -77 -62 -77 -53 0 -58 18 -58 233 0 215 3 227 59 227 42 0 61 -28 61 -88 l0 -52 51 0 52 0 -5 65 c-7 82 -31 124 -88 153 -56 28 -86 28 -140 -1z"/>
 <path d="M1060 667 c-75 -39 -80 -59 -80 -307 0 -248 5 -268 80 -307 54 -29 84 -29 140 0 80 40 85 59 85 307 0 248 -5 267 -85 308 -56 28 -86 28 -140 -1z m114 -99 c13 -18 16 -56 16 -208 0 -152 -3 -190 -16 -208 -18 -26 -60 -29 -86 -5 -16 15 -18 35 -18 211 0 168 2 198 17 214 23 25 68 23 87 -4z"/>
 <path d="M1102 558 c-9 -9 -12 -64 -12 -199 0 -197 4 -215 47 -207 17 3 18 19 18 208 0 198 -1 205 -20 208 -11 1 -26 -3 -33 -10z m43 -199 c0 -157 -2 -184 -15 -184 -13 0 -15 27 -18 175 -3 182 0 204 21 197 9 -3 12 -49 12 -188z"/>
 <path d="M1360 360 l0 -330 93 0 c172 1 207 35 207 207 0 88 -3 102 -24 134 l-25 36 34 134 c19 74 35 137 35 142 0 4 -22 7 -48 7 l-48 0 -30 -122 -30 -123 -37 -3 -37 -3 0 125 0 126 -45 0 -45 0 0 -330z m194 -36 c20 -19 23 -163 4 -182 -7 -7 -34 -12 -60 -12 l-48 0 0 105 0 105 44 0 c27 0 51 -6 60 -16z"/>
 <path d="M1480 235 c0 -77 2 -85 19 -85 45 0 51 9 51 79 0 72 -10 91 -47 91 -22 0 -23 -3 -23 -85z m44 59 c32 -32 13 -134 -25 -134 -5 0 -9 34 -9 75 0 76 6 87 34 59z"/>
 <path d="M1822 703 c-47 -23 -81 -71 -94 -135 -16 -77 -11 -85 66 -93 74 -8 82 -5 91 34 9 42 32 59 51 39 14 -14 14 -19 1 -44 -9 -16 -47 -57 -85 -91 -118 -106 -153 -218 -99 -323 33 -67 75 -90 159 -90 38 0 84 6 102 14 33 14 85 70 88 97 1 8 4 -13 7 -46 l6 -60 80 0 80 0 3 241 2 240 64 -9 c77 -12 92 -7 101 32 9 42 31 59 51 39 14 -14 14 -19 1 -44 -9 -16 -47 -57 -85 -91 -118 -106 -153 -218 -99 -323 33 -67 75 -90 159 -90 38 0 84 6 102 14 33 14 85 70 88 97 1 8 4 -13 7 -46 l6 -60 80 0 80 0 3 277 2 277 85 3 85 3 2 -280 3 -280 170 0 170 0 0 75 0 75 -87 3 -88 3 0 59 0 59 63 3 62 3 0 75 0 75 -62 3 -63 3 0 59 0 59 88 3 87 3 0 75 0 75 -340 0 -340 0 -3 -54 -3 -55 -24 41 c-14 23 -40 48 -59 57 -45 21 -157 21 -203 0 -42 -20 -80 -69 -90 -115 -7 -28 -9 -21 -13 46 l-5 80 -80 0 -80 0 -3 -54 -3 -55 -24 41 c-14 23 -40 48 -59 57 -45 21 -160 21 -204 -1z m205 -19 c44 -33 73 -92 73 -150 0 -73 -38 -142 -117 -212 -36 -31 -71 -69 -79 -84 -17 -33 -18 -70 -2 -86 21 -21 39 -13 54 24 l15 36 52 -6 c70 -10 83 -23 67 -72 -54 -170 -294 -164 -341 8 -23 86 3 142 122 264 72 74 89 97 89 121 0 59 -55 71 -78 18 -26 -59 -27 -60 -78 -57 -67 4 -78 17 -64 74 14 54 61 115 104 134 45 21 148 14 183 -12z m231 14 c17 -17 17 -659 0 -676 -16 -16 -110 -16 -126 0 -17 17 -17 659 0 676 16 16 110 16 126 0z m329 -14 c44 -33 73 -92 73 -150 0 -73 -38 -142 -117 -212 -36 -31 -71 -69 -79 -84 -17 -33 -18 -70 -2 -86 21 -21 39 -13 54 24 l15 36 52 -6 c70 -10 83 -23 67 -72 -54 -170 -294 -164 -341 8 -23 86 3 142 122 264 72 74 89 97 89 121 0 59 -55 71 -78 18 -26 -59 -27 -60 -78 -57 -67 4 -78 17 -64 74 14 54 61 115 104 134 45 21 148 14 183 -12z m401 14 c7 -7 12 -33 12 -58 0 -25 -5 -51 -12 -58 -7 -7 -42 -12 -85 -12 l-73 0 0 -268 c0 -195 -3 -271 -12 -280 -16 -16 -110 -16 -126 0 -17 17 -17 659 0 676 17 17 279 17 296 0z m357 -58 l0 -65 -87 -3 -88 -3 0 -69 0 -69 63 -3 62 -3 0 -65 0 -65 -62 -3 -63 -3 0 -69 0 -69 88 -3 87 -3 0 -65 0 -65 -149 -3 c-101 -2 -153 1 -162 9 -19 16 -21 658 -2 677 9 9 54 12 163 10 l150 -3 0 -65z m-1235 -314 l0 -125 -32 10 c-18 5 -52 9 -75 9 -37 0 -44 -4 -58 -30 -17 -33 -30 -38 -39 -15 -10 27 11 59 88 131 41 40 83 88 93 108 9 20 18 36 20 36 2 0 3 -56 3 -124z m560 0 l0 -125 -32 10 c-18 5 -52 9 -75 9 -37 0 -44 -4 -58 -30 -17 -33 -30 -38 -39 -15 -10 27 11 59 88 131 41 40 83 88 93 108 9 20 18 36 20 36 2 0 3 -56 3 -124z"/>
 <path d="M1850 668 c-47 -24 -90 -88 -90 -135 0 -21 5 -23 45 -23 37 0 45 3 45 19 0 55 78 92 112 54 46 -53 26 -104 -77 -197 -42 -38 -82 -84 -94 -109 -39 -80 -21 -175 42 -221 21 -15 43 -21 86 -21 66 0 101 19 132 68 29 47 22 70 -24 78 -33 5 -40 3 -47 -15 -20 -55 -85 -62 -109 -12 -23 49 -2 92 89 179 118 112 143 183 99 275 -38 77 -126 102 -209 60z"/>
 <path d="M2150 643 l0 -47 45 44 c25 24 45 45 45 47 0 2 -20 3 -45 3 l-45 0 0 -47z"/>
 <path d="M2193 558 c-31 -32 -43 -52 -43 -73 l0 -30 46 46 c36 36 45 52 42 73 l-3 27 -42 -43z"/>
 <path d="M2193 418 c-31 -32 -43 -52 -43 -73 l0 -30 46 46 c36 36 45 52 42 73 l-3 27 -42 -43z"/>
 <path d="M2193 278 c-27 -28 -43 -53 -43 -68 0 -23 3 -22 46 21 32 32 45 53 42 68 -3 20 -6 19 -45 -21z"/>
 <path d="M2192 147 c-34 -35 -42 -50 -42 -80 l0 -37 45 0 45 0 0 80 c0 44 -1 80 -3 80 -2 0 -22 -19 -45 -43z"/>
 <path d="M2410 668 c-47 -24 -90 -88 -90 -135 0 -21 5 -23 45 -23 37 0 45 3 45 19 0 55 78 92 112 54 46 -53 26 -104 -77 -197 -42 -38 -82 -84 -94 -109 -39 -80 -21 -175 42 -221 21 -15 43 -21 86 -21 66 0 101 19 132 68 29 47 22 70 -24 78 -33 5 -40 3 -47 -15 -20 -55 -85 -62 -109 -12 -23 49 -2 92 89 179 118 112 143 183 99 275 -38 77 -126 102 -209 60z"/>
 <path d="M2710 360 l0 -330 45 0 45 0 0 280 0 280 85 0 85 0 0 50 0 50 -130 0 -130 0 0 -330z"/>
 <path d="M3050 360 l0 -330 135 0 135 0 0 50 0 50 -90 0 -90 0 0 90 0 90 65 0 65 0 0 50 0 50 -65 0 -65 0 0 90 0 90 90 0 90 0 0 50 0 50 -135 0 -135 0 0 -330z"/>
 <path d="M3462 703 c-47 -23 -81 -71 -94 -135 -16 -77 -11 -85 66 -93 74 -8 82 -5 91 34 9 42 32 59 51 39 14 -14 14 -19 1 -44 -9 -16 -47 -57 -85 -91 -118 -106 -153 -218 -99 -323 33 -67 75 -90 159 -90 84 0 127 17 163 64 31 41 47 128 25 141 -7 4 -40 10 -75 13 -63 5 -63 4 -79 -27 -18 -34 -31 -39 -40 -16 -10 27 11 59 87 131 95 90 121 138 122 224 0 80 -34 148 -89 174 -45 21 -160 21 -204 -1z m205 -19 c44 -33 73 -92 73 -150 0 -73 -38 -142 -117 -212 -36 -31 -71 -69 -79 -84 -17 -33 -18 -70 -2 -86 21 -21 39 -13 54 24 l15 36 52 -6 c70 -10 83 -23 67 -72 -54 -170 -294 -164 -341 8 -23 86 3 142 122 264 72 74 89 97 89 121 0 59 -55 71 -78 18 -26 -59 -27 -60 -78 -57 -67 4 -78 17 -64 74 14 54 61 115 104 134 45 21 148 14 183 -12z"/>
 <path d="M3490 668 c-47 -24 -90 -88 -90 -135 0 -21 5 -23 45 -23 37 0 45 3 45 19 0 55 78 92 112 54 46 -53 26 -104 -77 -197 -42 -38 -82 -84 -94 -109 -39 -80 -21 -175 42 -221 21 -15 43 -21 86 -21 66 0 101 19 132 68 29 47 22 70 -24 78 -33 5 -40 3 -47 -15 -20 -55 -85 -62 -109 -12 -23 49 -2 92 89 179 118 112 143 183 99 275 -38 77 -126 102 -209 60z"/>
 </g>

</svg>