<!DOCTYPE svg PUBLIC "-//W3C//DTD SVG 20010904//EN" "http://www.w3.org/TR/2001/REC-SVG-20010904/DTD/svg10.dtd">
<svg version="1.0" xmlns="http://www.w3.org/2000/svg" width="432px" height="73px" viewBox="0 0 4320 730" preserveAspectRatio="xMidYMid meet">
<g id="layer1" fill="#ce7f4b" stroke="none">
 <path d="M2193 632 c-41 -47 -53 -68 -53 -94 l0 -33 56 56 c50 51 55 59 52 94 l-3 38 -52 -61z"/>
 <path d="M2193 492 c-41 -47 -53 -68 -53 -94 l0 -33 56 56 c50 51 55 59 52 94 l-3 38 -52 -61z"/>
 <path d="M2193 352 c-41 -47 -53 -68 -53 -94 l0 -33 56 56 c50 51 55 59 52 94 l-3 38 -52 -61z"/>
 <path d="M2193 222 c-41 -47 -53 -68 -53 -94 l0 -33 56 56 c50 51 55 59 52 94 l-3 38 -52 -61z"/>
 </g>
<g id="layer2" fill="#366997" stroke="none">
 <path d="M695 699 c-16 -4 -43 -20 -59 -35 -28 -27 -62 -92 -52 -101 3 -3 11 10 19 30 8 19 32 47 52 63 49 37 137 41 181 8 53 -39 68 -70 72 -144 5 -80 22 -85 22 -7 -1 138 -109 224 -235 186z"/>
 <path d="M1065 696 c-16 -8 -41 -24 -54 -36 -24 -24 -56 -88 -47 -97 3 -3 11 10 19 30 8 19 32 47 52 63 49 37 137 41 181 8 67 -50 69 -55 72 -289 3 -175 0 -220 -12 -250 -14 -32 -14 -36 -1 -25 27 22 35 84 35 270 -1 239 -14 279 -105 321 -47 22 -98 23 -140 5z"/>
 <path d="M1345 700 c-4 -6 13 -10 49 -10 l56 0 0 -125 0 -125 33 0 32 0 30 123 30 122 57 3 57 3 -38 -146 c-23 -87 -34 -148 -29 -151 6 -4 19 -25 29 -48 23 -50 25 -153 4 -221 -13 -46 -13 -47 3 -31 13 13 18 40 20 126 3 98 1 114 -19 155 l-23 46 33 134 c18 74 30 139 26 144 -3 6 -33 11 -65 11 l-59 0 -10 -37 c-6 -21 -17 -69 -26 -108 -23 -102 -25 -105 -45 -105 -18 0 -20 10 -22 123 l-3 122 -57 3 c-32 2 -59 -2 -63 -8z"/>
 <path d="M1845 692 c-22 -11 -48 -28 -58 -40 -20 -21 -52 -117 -37 -107 4 3 11 18 15 35 10 43 74 97 127 105 165 25 244 -129 144 -280 l-20 -30 21 18 c31 27 63 101 63 144 0 52 -35 118 -76 143 -48 31 -129 36 -179 12z"/>
 <path d="M2135 700 c-4 -6 14 -10 54 -10 l59 0 -3 -320 c-2 -190 0 -322 6 -326 6 -3 8 125 7 328 l-3 333 -57 3 c-32 2 -59 -2 -63 -8z"/>
 <path d="M2405 692 c-22 -11 -48 -28 -58 -40 -20 -21 -52 -117 -37 -107 4 3 11 18 15 35 10 43 74 97 127 105 165 25 244 -129 144 -280 l-20 -30 21 18 c31 27 63 101 63 144 0 52 -35 118 -76 143 -48 31 -129 36 -179 12z"/>
 <path d="M2695 700 c-4 -7 41 -10 134 -10 l141 0 0 -39 c0 -22 5 -43 11 -46 7 -5 9 11 7 47 l-3 53 -142 3 c-89 2 -144 -1 -148 -8z"/>
 <path d="M3035 700 c-4 -6 47 -10 144 -10 l151 0 0 -52 c0 -38 3 -49 10 -38 14 21 12 84 -2 98 -15 15 -294 17 -303 2z"/>
 <path d="M3485 692 c-22 -11 -48 -28 -58 -40 -20 -21 -52 -117 -37 -107 4 3 11 18 15 35 10 43 74 97 127 105 165 25 244 -129 144 -280 l-20 -30 21 18 c31 27 63 101 63 144 0 52 -35 118 -76 143 -48 31 -129 36 -179 12z"/>
 <path d="M2800 321 c0 -169 4 -272 10 -276 7 -4 10 85 10 259 0 146 0 269 1 273 0 4 -4 9 -10 11 -8 3 -11 -78 -11 -267z"/>
 <path d="M3140 501 l0 -91 70 0 70 0 0 -52 c0 -38 3 -49 10 -38 14 21 12 84 -2 98 -7 7 -38 12 -71 12 l-58 0 2 77 c1 51 -2 78 -9 81 -9 3 -12 -23 -12 -87z"/>
 <path d="M1862 555 c-14 -30 -15 -45 -4 -45 4 0 12 16 18 35 13 40 3 47 -14 10z"/>
 <path d="M2422 555 c-14 -30 -15 -45 -4 -45 4 0 12 16 18 35 13 40 3 47 -14 10z"/>
 <path d="M3502 555 c-14 -30 -15 -45 -4 -45 4 0 12 16 18 35 13 40 3 47 -14 10z"/>
 <path d="M696 554 c-3 -9 -6 -98 -6 -198 0 -194 7 -226 51 -226 30 0 59 18 59 37 0 15 -2 15 -18 0 -10 -10 -26 -17 -34 -17 -35 0 -39 24 -36 224 3 182 -1 220 -16 180z"/>
 <path d="M1077 563 c-4 -3 -7 -95 -7 -203 0 -178 2 -198 18 -213 31 -28 92 -14 92 20 0 15 -2 15 -18 0 -10 -10 -26 -17 -34 -17 -35 0 -39 24 -36 224 2 108 0 196 -3 196 -3 0 -9 -3 -12 -7z"/>
 <path d="M1960 499 c0 -5 -42 -51 -93 -102 -64 -64 -96 -103 -104 -129 -14 -47 -9 -49 13 -5 9 17 55 73 104 122 83 85 111 125 90 125 -6 0 -10 -5 -10 -11z"/>
 <path d="M2520 499 c0 -5 -42 -51 -93 -102 -64 -64 -96 -103 -104 -129 -14 -47 -9 -49 13 -5 9 17 55 73 104 122 83 85 111 125 90 125 -6 0 -10 -5 -10 -11z"/>
 <path d="M3600 499 c0 -5 -42 -51 -93 -102 -64 -64 -96 -103 -104 -129 -14 -47 -9 -49 13 -5 9 17 55 73 104 122 83 85 111 125 90 125 -6 0 -10 -5 -10 -11z"/>
 <path d="M1450 236 l0 -106 39 0 c50 0 71 8 71 28 0 12 -3 13 -12 4 -7 -7 -27 -12 -46 -12 l-33 0 2 92 c1 62 -2 93 -10 96 -8 3 -11 -27 -11 -102z"/>
 <path d="M3140 221 l0 -91 95 0 95 0 0 -52 c0 -38 3 -49 10 -38 14 21 12 84 -2 98 -7 7 -44 12 -96 12 l-83 0 2 77 c1 51 -2 78 -9 81 -9 3 -12 -23 -12 -87z"/>
 <path d="M1891 257 c-40 -66 -19 -142 38 -135 18 2 30 13 40 35 14 31 17 32 55 27 23 -4 44 -9 48 -13 3 -3 0 -24 -7 -46 -8 -21 -12 -41 -10 -43 7 -7 35 57 35 82 0 26 -7 29 -71 40 -34 6 -38 4 -58 -29 -16 -27 -27 -36 -44 -33 -18 2 -23 10 -25 46 -2 28 3 53 13 69 9 13 15 27 12 29 -3 3 -14 -10 -26 -29z"/>
 <path d="M2451 257 c-40 -66 -19 -142 38 -135 18 2 30 13 40 35 14 31 17 32 55 27 23 -4 44 -9 48 -13 3 -3 0 -24 -7 -46 -8 -21 -12 -41 -10 -43 7 -7 35 57 35 82 0 26 -7 29 -71 40 -34 6 -38 4 -58 -29 -16 -27 -27 -36 -44 -33 -18 2 -23 10 -25 46 -2 28 3 53 13 69 9 13 15 27 12 29 -3 3 -14 -10 -26 -29z"/>
 <path d="M3531 257 c-40 -66 -19 -142 38 -135 18 2 30 13 40 35 14 31 17 32 55 27 23 -4 44 -9 48 -13 3 -3 0 -24 -7 -46 -8 -21 -12 -41 -10 -43 7 -7 35 57 35 82 0 26 -7 29 -71 40 -34 6 -38 4 -58 -29 -16 -27 -27 -36 -44 -33 -18 2 -23 10 -25 46 -2 28 3 53 13 69 9 13 15 27 12 29 -3 3 -14 -10 -26 -29z"/>
 <path d="M790 260 c0 -6 27 -10 60 -10 l60 0 0 -45 c0 -25 -7 -61 -15 -81 -8 -19 -10 -32 -4 -28 18 10 39 70 39 108 0 61 -6 66 -76 66 -36 0 -64 -4 -64 -10z"/>
 </g>
<g id="layer3" fill="#afc6db" stroke="none">
 <path d="M1334 360 c0 -184 2 -260 3 -167 2 92 2 242 0 335 -1 92 -3 16 -3 -168z"/>
 <path d="M1354 360 c0 -184 2 -260 3 -167 2 92 2 242 0 335 -1 92 -3 16 -3 -168z"/>
 <path d="M2124 360 c0 -184 2 -260 3 -167 2 92 2 242 0 335 -1 92 -3 16 -3 -168z"/>
 <path d="M2143 640 c0 -30 2 -43 4 -27 2 15 2 39 0 55 -2 15 -4 2 -4 -28z"/>
 <path d="M2684 360 c0 -184 2 -260 3 -167 2 92 2 242 0 335 -1 92 -3 16 -3 -168z"/>
 <path d="M2704 360 c0 -184 2 -260 3 -167 2 92 2 242 0 335 -1 92 -3 16 -3 -168z"/>
 <path d="M3024 360 c0 -184 2 -260 3 -167 2 92 2 242 0 335 -1 92 -3 16 -3 -168z"/>
 <path d="M3044 360 c0 -184 2 -260 3 -167 2 92 2 242 0 335 -1 92 -3 16 -3 -168z"/>
 <path d="M1784 608 c-10 -13 -12 -18 -5 -11 7 6 20 9 27 6 10 -4 12 0 8 11 -8 20 -7 20 -30 -6z"/>
 <path d="M2344 608 c-10 -13 -12 -18 -5 -11 7 6 20 9 27 6 10 -4 12 0 8 11 -8 20 -7 20 -30 -6z"/>
 <path d="M3424 608 c-10 -13 -12 -18 -5 -11 7 6 20 9 27 6 10 -4 12 0 8 11 -8 20 -7 20 -30 -6z"/>
 <path d="M616 611 c-3 -5 1 -11 9 -15 9 -3 15 0 15 9 0 16 -16 20 -24 6z"/>
 <path d="M996 611 c-3 -5 1 -11 9 -15 9 -3 15 0 15 9 0 16 -16 20 -24 6z"/>
 <path d="M2765 610 c-3 -5 -1 -10 4 -10 6 0 11 5 11 10 0 6 -2 10 -4 10 -3 0 -8 -4 -11 -10z"/>
 <path d="M3105 610 c-3 -5 -1 -10 4 -10 6 0 11 5 11 10 0 6 -2 10 -4 10 -3 0 -8 -4 -11 -10z"/>
 <path d="M1840 580 c20 -13 33 -13 25 0 -3 6 -14 10 -23 10 -15 0 -15 -2 -2 -10z"/>
 <path d="M2400 580 c20 -13 33 -13 25 0 -3 6 -14 10 -23 10 -15 0 -15 -2 -2 -10z"/>
 <path d="M3480 580 c20 -13 33 -13 25 0 -3 6 -14 10 -23 10 -15 0 -15 -2 -2 -10z"/>
 <path d="M800 507 l5 -62 3 54 c2 30 0 58 -5 62 -4 4 -6 -20 -3 -54z"/>
 <path d="M574 360 c0 -113 2 -159 3 -102 2 56 2 148 0 205 -1 56 -3 10 -3 -103z"/>
 <path d="M594 355 c0 -116 2 -161 3 -102 2 59 2 154 0 210 -1 56 -3 8 -3 -108z"/>
 <path d="M954 360 c0 -113 2 -159 3 -102 2 56 2 148 0 205 -1 56 -3 10 -3 -103z"/>
 <path d="M974 355 c0 -116 2 -161 3 -102 2 59 2 154 0 210 -1 56 -3 8 -3 -108z"/>
 <path d="M783 500 c0 -30 2 -43 4 -27 2 15 2 39 0 55 -2 15 -4 2 -4 -28z"/>
 <path d="M1164 360 c0 -107 2 -151 3 -97 2 53 2 141 0 195 -1 53 -3 9 -3 -98z"/>
 <path d="M1184 355 c0 -110 2 -156 3 -103 2 53 2 143 0 200 -1 57 -3 13 -3 -97z"/>
 <path d="M1731 524 c0 -11 3 -14 6 -6 3 7 2 16 -1 19 -3 4 -6 -2 -5 -13z"/>
 <path d="M1751 524 c0 -11 3 -14 6 -6 3 7 2 16 -1 19 -3 4 -6 -2 -5 -13z"/>
 <path d="M2291 524 c0 -11 3 -14 6 -6 3 7 2 16 -1 19 -3 4 -6 -2 -5 -13z"/>
 <path d="M2311 524 c0 -11 3 -14 6 -6 3 7 2 16 -1 19 -3 4 -6 -2 -5 -13z"/>
 <path d="M3371 524 c0 -11 3 -14 6 -6 3 7 2 16 -1 19 -3 4 -6 -2 -5 -13z"/>
 <path d="M3391 524 c0 -11 3 -14 6 -6 3 7 2 16 -1 19 -3 4 -6 -2 -5 -13z"/>
 <path d="M1818 503 c6 -2 18 -2 25 0 6 3 1 5 -13 5 -14 0 -19 -2 -12 -5z"/>
 <path d="M2142 480 c0 -19 2 -27 5 -17 2 9 2 25 0 35 -3 9 -5 1 -5 -18z"/>
 <path d="M2378 503 c6 -2 18 -2 25 0 6 3 1 5 -13 5 -14 0 -19 -2 -12 -5z"/>
 <path d="M3458 503 c6 -2 18 -2 25 0 6 3 1 5 -13 5 -14 0 -19 -2 -12 -5z"/>
 <path d="M1818 483 c6 -2 18 -2 25 0 6 3 1 5 -13 5 -14 0 -19 -2 -12 -5z"/>
 <path d="M2378 483 c6 -2 18 -2 25 0 6 3 1 5 -13 5 -14 0 -19 -2 -12 -5z"/>
 <path d="M3458 483 c6 -2 18 -2 25 0 6 3 1 5 -13 5 -14 0 -19 -2 -12 -5z"/>
 <path d="M1985 470 c3 -5 8 -10 11 -10 2 0 4 5 4 10 0 6 -5 10 -11 10 -5 0 -7 -4 -4 -10z"/>
 <path d="M2545 470 c3 -5 8 -10 11 -10 2 0 4 5 4 10 0 6 -5 10 -11 10 -5 0 -7 -4 -4 -10z"/>
 <path d="M3625 470 c3 -5 8 -10 11 -10 2 0 4 5 4 10 0 6 -5 10 -11 10 -5 0 -7 -4 -4 -10z"/>
 <path d="M2016 461 c-3 -4 -1 -13 5 -21 7 -13 9 -12 9 2 0 11 5 15 15 12 8 -4 15 -2 15 3 0 11 -38 15 -44 4z"/>
 <path d="M2576 461 c-3 -4 -1 -13 5 -21 7 -13 9 -12 9 2 0 11 5 15 15 12 8 -4 15 -2 15 3 0 11 -38 15 -44 4z"/>
 <path d="M3656 461 c-3 -4 -1 -13 5 -21 7 -13 9 -12 9 2 0 11 5 15 15 12 8 -4 15 -2 15 3 0 11 -38 15 -44 4z"/>
 <path d="M1415 360 c-3 -5 -1 -10 4 -10 6 0 11 5 11 10 0 6 -2 10 -4 10 -3 0 -8 -4 -11 -10z"/>
 <path d="M2142 340 c0 -19 2 -27 5 -17 2 9 2 25 0 35 -3 9 -5 1 -5 -18z"/>
 <path d="M1949 323 c-13 -16 -12 -17 4 -4 16 13 21 21 13 21 -2 0 -10 -8 -17 -17z"/>
 <path d="M1979 323 c-13 -16 -12 -17 4 -4 9 7 17 15 17 17 0 8 -8 3 -21 -13z"/>
 <path d="M2509 323 c-13 -16 -12 -17 4 -4 9 7 17 15 17 17 0 8 -8 3 -21 -13z"/>
 <path d="M2539 323 c-13 -16 -12 -17 4 -4 9 7 17 15 17 17 0 8 -8 3 -21 -13z"/>
 <path d="M3105 330 c-3 -5 -1 -10 4 -10 6 0 11 5 11 10 0 6 -2 10 -4 10 -3 0 -8 -4 -11 -10z"/>
 <path d="M3589 323 c-13 -16 -12 -17 4 -4 9 7 17 15 17 17 0 8 -8 3 -21 -13z"/>
 <path d="M3619 323 c-13 -16 -12 -17 4 -4 9 7 17 15 17 17 0 8 -8 3 -21 -13z"/>
 <path d="M1796 291 c-3 -5 1 -11 9 -15 9 -3 15 0 15 9 0 16 -16 20 -24 6z"/>
 <path d="M2356 291 c-3 -5 1 -11 9 -15 9 -3 15 0 15 9 0 16 -16 20 -24 6z"/>
 <path d="M3436 291 c-3 -5 1 -11 9 -15 9 -3 15 0 15 9 0 16 -16 20 -24 6z"/>
 <path d="M783 210 c0 -25 2 -35 4 -22 2 12 2 32 0 45 -2 12 -4 2 -4 -23z"/>
 <path d="M803 210 c0 -25 2 -35 4 -22 2 12 2 32 0 45 -2 12 -4 2 -4 -23z"/>
 <path d="M2142 205 c0 -16 2 -22 5 -12 2 9 2 23 0 30 -3 6 -5 -1 -5 -18z"/>
 <path d="M1742 190 c0 -19 2 -27 5 -17 2 9 2 25 0 35 -3 9 -5 1 -5 -18z"/>
 <path d="M1763 185 c0 -22 2 -30 4 -17 2 12 2 30 0 40 -3 9 -5 -1 -4 -23z"/>
 <path d="M2302 190 c0 -19 2 -27 5 -17 2 9 2 25 0 35 -3 9 -5 1 -5 -18z"/>
 <path d="M2323 185 c0 -22 2 -30 4 -17 2 12 2 30 0 40 -3 9 -5 -1 -4 -23z"/>
 <path d="M3382 190 c0 -19 2 -27 5 -17 2 9 2 25 0 35 -3 9 -5 1 -5 -18z"/>
 <path d="M3403 185 c0 -22 2 -30 4 -17 2 12 2 30 0 40 -3 9 -5 -1 -4 -23z"/>
 <path d="M821 144 c0 -11 3 -14 6 -6 3 7 2 16 -1 19 -3 4 -6 -2 -5 -13z"/>
 <path d="M1201 144 c0 -11 3 -14 6 -6 3 7 2 16 -1 19 -3 4 -6 -2 -5 -13z"/>
 <path d="M1986 135 c4 -8 8 -15 10 -15 2 0 4 7 4 15 0 8 -4 15 -10 15 -5 0 -7 -7 -4 -15z"/>
 <path d="M2546 135 c4 -8 8 -15 10 -15 2 0 4 7 4 15 0 8 -4 15 -10 15 -5 0 -7 -7 -4 -15z"/>
 <path d="M3626 135 c4 -8 8 -15 10 -15 2 0 4 7 4 15 0 8 -4 15 -10 15 -5 0 -7 -7 -4 -15z"/>
 <path d="M860 133 c0 -3 7 -11 15 -19 13 -14 15 -13 15 4 0 10 -7 19 -15 19 -8 0 -15 -2 -15 -4z"/>
 <path d="M1240 129 c0 -4 7 -9 15 -13 9 -3 15 0 15 8 0 7 -7 13 -15 13 -8 0 -15 -4 -15 -8z"/>
 <path d="M2032 121 c2 -7 7 -12 11 -12 12 1 9 15 -3 20 -7 2 -11 -2 -8 -8z"/>
 <path d="M2592 121 c4 -13 18 -16 19 -4 0 4 -5 9 -11 12 -7 2 -11 -2 -8 -8z"/>
 <path d="M3672 121 c2 -7 7 -12 11 -12 12 1 9 15 -3 20 -7 2 -11 -2 -8 -8z"/>
 <path d="M1620 116 c0 -2 7 -7 16 -10 8 -3 12 -2 9 4 -6 10 -25 14 -25 6z"/>
 <path d="M2143 65 c0 -22 2 -30 4 -17 2 12 2 30 0 40 -3 9 -5 -1 -4 -23z"/>
 <path d="M620 65 c13 -14 26 -25 28 -25 3 0 -5 11 -18 25 -13 14 -26 25 -28 25 -3 0 5 -11 18 -25z"/>
 <path d="M1790 86 c0 -2 8 -10 18 -17 15 -13 16 -12 3 4 -13 16 -21 21 -21 13z"/>
 <path d="M2024 68 l-19 -23 23 19 c12 11 22 21 22 23 0 8 -8 2 -26 -19z"/>
 <path d="M2350 86 c0 -2 8 -10 18 -17 15 -13 16 -12 3 4 -13 16 -21 21 -21 13z"/>
 <path d="M2584 68 l-19 -23 23 19 c12 11 22 21 22 23 0 8 -8 2 -26 -19z"/>
 <path d="M3430 86 c0 -2 8 -10 18 -17 15 -13 16 -12 3 4 -13 16 -21 21 -21 13z"/>
 <path d="M3664 68 l-19 -23 23 19 c12 11 22 21 22 23 0 8 -8 2 -26 -19z"/>
 <path d="M820 50 c-9 -6 -10 -10 -3 -10 6 0 15 5 18 10 8 12 4 12 -15 0z"/>
 <path d="M1590 50 c-9 -6 -10 -10 -3 -10 6 0 15 5 18 10 8 12 4 12 -15 0z"/>
 <path d="M2261 44 c0 -11 3 -14 6 -6 3 7 2 16 -1 19 -3 4 -6 -2 -5 -13z"/>
 <path d="M2821 44 c0 -11 3 -14 6 -6 3 7 2 16 -1 19 -3 4 -6 -2 -5 -13z"/>
 <path d="M1868 33 c7 -3 16 -2 19 1 4 3 -2 6 -13 5 -11 0 -14 -3 -6 -6z"/>
 <path d="M2428 33 c7 -3 16 -2 19 1 4 3 -2 6 -13 5 -11 0 -14 -3 -6 -6z"/>
 <path d="M3508 33 c7 -3 16 -2 19 1 4 3 -2 6 -13 5 -11 0 -14 -3 -6 -6z"/>
 </g>
<g id="layer4" fill="#5287b8" stroke="none">
 <path d="M1345 355 l0 -340 115 0 c101 0 119 3 150 22 19 12 41 32 48 44 13 21 13 21 -18 -2 -61 -46 -72 -49 -182 -49 l-108 0 -3 333 -2 332 0 -340z"/>
 <path d="M2135 355 l0 -340 54 -3 c58 -3 84 9 62 30 -11 10 -13 10 -7 1 5 -10 -7 -13 -48 -13 l-56 0 -3 333 -2 332 0 -340z"/>
 <path d="M2695 355 l0 -340 54 -3 c58 -3 84 9 62 30 -11 10 -13 10 -7 1 5 -10 -7 -13 -48 -13 l-56 0 -3 333 -2 332 0 -340z"/>
 <path d="M3035 355 l0 -340 144 -3 c89 -2 148 1 155 8 7 7 -38 10 -142 10 l-152 0 -3 333 -2 332 0 -340z"/>
 <path d="M2974 603 c6 -10 -12 -13 -74 -13 -52 0 -79 -4 -75 -10 8 -14 152 -13 161 1 3 6 1 16 -6 22 -10 9 -11 9 -6 0z"/>
 <path d="M1895 592 c-5 -4 -11 -14 -13 -22 -3 -12 -1 -13 9 -2 7 6 21 12 31 12 20 0 53 -44 43 -60 -3 -5 -1 -10 4 -10 19 0 12 49 -9 70 -20 20 -47 25 -65 12z"/>
 <path d="M2455 592 c-5 -4 -11 -14 -13 -22 -3 -12 -1 -13 9 -2 7 6 21 12 31 12 20 0 53 -44 43 -60 -3 -5 -1 -10 4 -10 19 0 12 49 -9 70 -20 20 -47 25 -65 12z"/>
 <path d="M3535 592 c-5 -4 -11 -14 -13 -22 -3 -12 -1 -13 9 -2 7 6 21 12 31 12 20 0 53 -44 43 -60 -3 -5 -1 -10 4 -10 19 0 12 49 -9 70 -20 20 -47 25 -65 12z"/>
 <path d="M725 582 c-5 -4 -11 -13 -13 -20 -2 -10 2 -10 18 0 35 22 54 0 60 -68 l5 -59 56 -3 c37 -2 60 2 67 10 8 10 -2 12 -54 10 l-64 -4 0 55 c0 37 -5 61 -16 71 -16 17 -42 21 -59 8z"/>
 <path d="M1105 582 c-5 -4 -11 -13 -13 -20 -2 -10 2 -10 18 0 15 10 25 10 38 2 15 -10 18 -35 22 -200 l6 -189 2 192 c2 163 0 194 -14 207 -16 17 -42 21 -59 8z"/>
 <path d="M3165 580 c3 -5 42 -10 85 -10 43 0 82 5 85 10 4 6 -27 10 -85 10 -58 0 -89 -4 -85 -10z"/>
 <path d="M1536 567 c3 -10 9 -15 12 -12 3 3 0 11 -7 18 -10 9 -11 8 -5 -6z"/>
 <path d="M587 563 c-4 -3 -7 -100 -7 -215 0 -227 2 -238 57 -291 30 -28 79 -47 122 -47 39 0 109 39 133 73 20 29 20 30 3 18 -11 -8 -32 -26 -47 -40 -41 -37 -130 -42 -177 -9 -75 51 -76 54 -76 299 0 120 0 219 -1 219 0 0 -4 -3 -7 -7z"/>
 <path d="M967 563 c-4 -3 -7 -101 -7 -216 0 -193 2 -212 21 -246 44 -80 142 -111 223 -71 25 12 56 36 68 53 l23 32 -34 -25 c-69 -52 -87 -60 -132 -60 -51 0 -98 26 -133 73 -20 27 -21 41 -21 248 0 120 0 219 -1 219 0 0 -4 -3 -7 -7z"/>
 <path d="M1744 527 c1 -32 2 -32 55 -35 33 -2 58 2 65 9 8 9 7 10 -7 6 -9 -4 -38 -4 -63 0 -38 5 -45 9 -41 24 3 11 2 21 -2 24 -5 2 -8 -10 -7 -28z"/>
 <path d="M2304 527 c1 -32 2 -32 55 -35 33 -2 58 2 65 9 8 9 7 10 -7 6 -9 -4 -38 -4 -63 0 -38 5 -45 9 -41 24 3 11 2 21 -2 24 -5 2 -8 -10 -7 -28z"/>
 <path d="M3384 527 c1 -32 2 -32 55 -35 33 -2 58 2 65 9 8 9 7 10 -7 6 -9 -4 -38 -4 -63 0 -38 5 -45 9 -41 24 3 11 2 21 -2 24 -5 2 -8 -10 -7 -28z"/>
 <path d="M1517 469 c4 -13 8 -18 11 -10 2 7 -1 18 -6 23 -8 8 -9 4 -5 -13z"/>
 <path d="M1939 443 c-13 -16 -12 -17 4 -4 16 13 21 21 13 21 -2 0 -10 -8 -17 -17z"/>
 <path d="M2499 443 c-13 -16 -12 -17 4 -4 16 13 21 21 13 21 -2 0 -10 -8 -17 -17z"/>
 <path d="M3579 443 c-13 -16 -12 -17 4 -4 16 13 21 21 13 21 -2 0 -10 -8 -17 -17z"/>
 <path d="M1990 354 c-36 -31 -68 -66 -72 -76 -5 -11 -13 -16 -19 -12 -8 4 -9 3 -5 -5 5 -8 28 7 69 45 56 52 104 104 95 104 -2 0 -32 -25 -68 -56z"/>
 <path d="M2550 354 c-36 -31 -68 -66 -72 -76 -5 -11 -13 -16 -19 -12 -8 4 -9 3 -5 -5 5 -8 28 7 69 45 56 52 104 104 95 104 -2 0 -32 -25 -68 -56z"/>
 <path d="M3630 354 c-36 -31 -68 -66 -72 -76 -5 -11 -13 -16 -19 -12 -8 4 -9 3 -5 -5 5 -8 28 7 69 45 56 52 104 104 95 104 -2 0 -32 -25 -68 -56z"/>
 <path d="M1476 331 c5 -5 23 -11 39 -13 30 -3 30 -3 35 -80 7 -101 20 -111 20 -15 0 89 -17 117 -72 117 -20 0 -28 -4 -22 -9z"/>
 <path d="M1663 235 c0 -44 2 -61 4 -37 2 23 2 59 0 80 -2 20 -4 1 -4 -43z"/>
 <path d="M1683 240 c0 -41 2 -58 4 -37 2 20 2 54 0 75 -2 20 -4 3 -4 -38z"/>
 <path d="M3165 300 c3 -5 30 -10 60 -10 30 0 57 5 60 10 4 6 -18 10 -60 10 -42 0 -64 -4 -60 -10z"/>
 <path d="M793 215 c0 -22 2 -30 4 -17 2 12 2 30 0 40 -3 9 -5 -1 -4 -23z"/>
 <path d="M1753 183 c2 -54 7 -75 26 -102 28 -39 91 -71 141 -71 43 0 108 29 135 61 l20 23 -25 -17 c-113 -79 -235 -57 -275 48 -11 28 -16 58 -12 80 3 19 2 37 -3 40 -5 3 -8 -25 -7 -62z"/>
 <path d="M2313 183 c2 -54 7 -75 26 -102 28 -39 91 -71 141 -71 43 0 108 29 135 61 l20 23 -25 -17 c-113 -79 -235 -57 -275 48 -11 28 -16 58 -12 80 3 19 2 37 -3 40 -5 3 -8 -25 -7 -62z"/>
 <path d="M3393 183 c2 -54 7 -75 26 -102 28 -39 91 -71 141 -71 43 0 108 29 135 61 l20 23 -25 -17 c-113 -79 -235 -57 -275 48 -11 28 -16 58 -12 80 3 19 2 37 -3 40 -5 3 -8 -25 -7 -62z"/>
 </g>
<g id="layer5" fill="#b2b3b3" stroke="none">
 <path d="M684 671 c-47 -22 -57 -33 -48 -55 5 -13 11 -12 42 9 77 52 167 16 179 -72 3 -27 14 -50 31 -65 l25 -23 -6 64 c-8 94 -54 146 -137 156 -32 4 -57 0 -86 -14z"/>
 <path d="M1064 671 c-47 -21 -57 -33 -48 -55 5 -13 12 -11 45 11 31 21 47 25 80 20 90 -12 101 -49 97 -310 -2 -108 0 -197 5 -197 4 0 10 0 13 1 4 0 10 -5 15 -12 14 -23 21 75 17 266 -3 178 -4 192 -25 221 -48 67 -127 89 -199 55z"/>
 <path d="M1383 670 c26 -20 26 -25 29 -143 l3 -122 74 0 c72 0 74 -1 100 -34 22 -29 26 -46 29 -116 4 -93 -10 -140 -32 -110 -11 15 -13 15 -25 1 -9 -11 -30 -16 -62 -16 l-48 0 -3 107 c-3 93 -5 108 -20 111 -16 3 -18 -8 -18 -117 0 -109 2 -121 19 -131 33 -17 111 -12 147 11 25 15 38 18 52 10 11 -6 22 -7 26 -4 3 3 6 54 6 113 0 97 -2 111 -24 143 l-24 35 34 128 c19 71 34 135 34 142 0 8 -16 12 -47 12 -46 0 -46 0 -28 -20 18 -20 18 -23 -4 -115 -23 -96 -38 -124 -58 -104 -8 8 -13 8 -17 0 -4 -6 -23 -11 -42 -11 l-34 0 0 125 0 125 -46 0 -47 0 26 -20z"/>
 <path d="M1474 575 c0 -66 1 -92 3 -57 2 34 2 88 0 120 -2 31 -3 3 -3 -63z"/>
 <path d="M1865 679 c-17 -4 -44 -23 -60 -41 -17 -18 -23 -27 -13 -20 13 10 17 10 21 0 3 -10 9 -9 23 4 52 46 134 42 174 -10 18 -22 21 -37 18 -84 -2 -32 0 -58 4 -58 5 0 6 -6 2 -12 -5 -9 -2 -9 9 1 9 7 17 10 18 5 0 -5 4 0 9 11 15 34 11 88 -10 133 -30 66 -111 96 -195 71z"/>
 <path d="M2174 669 l28 -22 21 22 21 21 -48 0 -49 0 27 -21z"/>
 <path d="M2264 375 c0 -176 2 -247 3 -157 2 90 2 234 0 320 -1 86 -3 13 -3 -163z"/>
 <path d="M2425 679 c-17 -4 -44 -23 -60 -41 -17 -18 -23 -27 -13 -20 13 10 17 10 21 0 3 -10 9 -9 23 4 52 46 134 42 174 -10 18 -22 21 -37 18 -84 -2 -32 0 -58 4 -58 5 0 6 -6 2 -12 -5 -9 -2 -9 9 1 9 7 17 10 18 5 0 -5 4 0 9 11 15 34 11 88 -10 133 -30 66 -111 96 -195 71z"/>
 <path d="M2737 666 c25 -21 35 -23 104 -18 61 3 81 1 102 -13 l27 -17 0 36 0 36 -131 0 -131 0 29 -24z"/>
 <path d="M2993 650 c0 -25 2 -35 4 -22 2 12 2 32 0 45 -2 12 -4 2 -4 -23z"/>
 <path d="M3077 666 c26 -21 35 -23 116 -18 82 4 90 3 112 -18 l25 -23 0 41 0 42 -141 0 -141 0 29 -24z"/>
 <path d="M3505 679 c-17 -4 -44 -23 -60 -41 -17 -18 -23 -27 -13 -20 13 10 17 10 21 0 3 -10 9 -9 23 4 52 46 134 42 174 -10 18 -22 21 -37 18 -84 -2 -32 0 -58 4 -58 5 0 6 -6 2 -12 -5 -9 -2 -9 9 1 9 7 17 10 18 5 0 -5 4 0 9 11 15 34 11 88 -10 133 -30 66 -111 96 -195 71z"/>
 <path d="M2164 608 l-29 -33 33 29 c30 28 37 36 29 36 -2 0 -16 -15 -33 -32z"/>
 <path d="M651 574 c-13 -29 -14 -312 -2 -388 11 -69 64 -108 124 -93 41 11 56 29 46 56 l-10 25 -15 -22 c-19 -27 -65 -29 -88 -3 -15 16 -17 44 -16 220 1 163 -1 204 -13 215 -12 13 -16 12 -26 -10z"/>
 <path d="M1030 570 c-16 -40 -9 -395 8 -427 15 -27 62 -53 94 -53 32 0 68 27 68 51 0 23 -13 25 -30 4 -17 -21 -63 -19 -84 4 -15 16 -17 44 -16 220 1 165 -1 204 -13 216 -13 13 -16 11 -27 -15z"/>
 <path d="M1827 593 c-12 -11 -8 -40 8 -53 12 -10 16 -9 22 5 4 11 0 22 -10 30 -9 7 -14 15 -10 18 3 4 4 7 1 7 -2 0 -8 -3 -11 -7z"/>
 <path d="M2218 583 c-10 -11 -18 -33 -18 -49 l0 -28 21 20 c13 14 19 31 17 49 -3 27 -3 27 -20 8z"/>
 <path d="M2387 593 c-12 -11 -8 -40 8 -53 12 -10 16 -9 22 5 4 11 0 22 -10 30 -9 7 -14 15 -10 18 3 4 4 7 1 7 -2 0 -8 -3 -11 -7z"/>
 <path d="M2760 341 c0 -251 1 -261 20 -271 20 -11 20 -9 18 257 -3 246 -4 268 -20 271 -17 3 -18 -14 -18 -257z"/>
 <path d="M3102 488 l3 -113 65 -3 c50 -2 70 -8 87 -24 l23 -21 0 41 0 42 -70 0 -69 0 -3 92 c-3 80 -6 93 -21 96 -16 3 -17 -6 -15 -110z"/>
 <path d="M3467 593 c-12 -11 -8 -40 8 -53 12 -10 16 -9 22 5 4 11 0 22 -10 30 -9 7 -14 15 -10 18 3 4 4 7 1 7 -2 0 -8 -3 -11 -7z"/>
 <path d="M2824 315 c0 -143 2 -200 3 -127 2 73 2 190 0 260 -1 70 -3 10 -3 -133z"/>
 <path d="M3163 500 c0 -41 2 -58 4 -37 2 20 2 54 0 75 -2 20 -4 3 -4 -38z"/>
 <path d="M2164 468 l-29 -33 33 29 c17 17 32 31 32 33 0 8 -8 1 -36 -29z"/>
 <path d="M1970 482 c0 -7 -38 -49 -85 -94 -84 -80 -85 -81 -64 -99 16 -14 18 -21 10 -38 -6 -11 -11 -38 -11 -61 0 -57 42 -100 97 -100 51 0 78 19 68 49 l-7 23 -15 -21 c-19 -27 -68 -28 -83 -2 -14 27 -13 94 3 110 6 8 8 11 2 9 -5 -3 -16 0 -23 8 -7 8 -9 14 -5 14 4 0 2 4 -5 9 -10 6 5 25 57 72 75 67 88 88 72 116 -6 11 -11 13 -11 5z"/>
 <path d="M2530 482 c0 -7 -38 -49 -85 -94 -84 -80 -85 -81 -64 -99 16 -14 18 -21 10 -38 -6 -11 -11 -38 -11 -61 0 -57 42 -100 97 -100 51 0 78 19 68 49 l-7 23 -15 -21 c-19 -27 -68 -28 -83 -2 -14 27 -13 94 3 110 6 8 8 11 2 9 -5 -3 -16 0 -23 8 -7 8 -9 14 -5 14 4 0 2 4 -5 9 -10 6 5 25 57 72 75 67 88 88 72 116 -6 11 -11 13 -11 5z"/>
 <path d="M3610 482 c0 -7 -38 -49 -85 -94 -84 -80 -85 -81 -64 -99 16 -14 18 -21 10 -38 -6 -11 -11 -38 -11 -61 0 -57 42 -100 97 -100 51 0 78 19 68 49 l-7 23 -15 -21 c-19 -27 -68 -28 -83 -2 -14 27 -13 94 3 110 6 8 8 11 2 9 -5 -3 -16 0 -23 8 -7 8 -9 14 -5 14 4 0 2 4 -5 9 -10 6 5 25 57 72 75 67 88 88 72 116 -6 11 -11 13 -11 5z"/>
 <path d="M1919 453 c-13 -16 -12 -17 4 -4 16 13 21 21 13 21 -2 0 -10 -8 -17 -17z"/>
 <path d="M2479 453 c-13 -16 -12 -17 4 -4 16 13 21 21 13 21 -2 0 -10 -8 -17 -17z"/>
 <path d="M3559 453 c-13 -16 -12 -17 4 -4 16 13 21 21 13 21 -2 0 -10 -8 -17 -17z"/>
 <path d="M2218 443 c-10 -11 -18 -33 -18 -49 l0 -28 21 20 c13 14 19 31 17 49 -3 27 -3 27 -20 8z"/>
 <path d="M2164 328 l-29 -33 33 29 c17 17 32 31 32 33 0 8 -8 1 -36 -29z"/>
 <path d="M1474 235 c0 -50 1 -71 3 -48 2 23 2 64 0 90 -2 26 -3 8 -3 -42z"/>
 <path d="M2218 303 c-10 -11 -18 -30 -18 -44 l0 -23 21 20 c12 13 19 31 17 44 -3 22 -3 22 -20 3z"/>
 <path d="M3100 216 c0 -125 1 -126 111 -126 61 0 76 -4 96 -22 l23 -21 0 41 0 42 -95 0 -94 0 -3 92 c-3 79 -6 93 -20 96 -16 3 -18 -7 -18 -102z"/>
 <path d="M3163 220 c0 -41 2 -58 4 -37 2 20 2 54 0 75 -2 20 -4 3 -4 -38z"/>
 <path d="M833 273 c15 -2 39 -2 55 0 15 2 2 4 -28 4 -30 0 -43 -2 -27 -4z"/>
 <path d="M840 225 c17 -18 21 -31 17 -55 -6 -28 0 -35 26 -31 4 0 7 -5 8 -11 2 -27 17 39 18 80 l1 42 -47 0 -46 0 23 -25z"/>
 <path d="M2164 198 l-29 -33 33 29 c17 17 32 31 32 33 0 8 -8 1 -36 -29z"/>
 <path d="M1999 168 c8 -24 49 -50 63 -42 13 8 9 44 -4 48 -7 3 -25 7 -40 10 -25 6 -27 4 -19 -16z"/>
 <path d="M2217 172 c-24 -27 -22 -88 3 -102 19 -10 20 -8 20 55 0 36 -2 65 -3 65 -2 0 -11 -8 -20 -18z"/>
 <path d="M2559 168 c8 -24 49 -50 63 -42 13 8 9 44 -4 48 -7 3 -25 7 -40 10 -25 6 -27 4 -19 -16z"/>
 <path d="M3639 168 c8 -24 49 -50 63 -42 13 8 9 44 -4 48 -7 3 -25 7 -40 10 -25 6 -27 4 -19 -16z"/>
 </g>
<g id="layer6" fill="#fafafa" stroke="none">
 <path d="M643 695 c-27 -16 -49 -41 -63 -69 -20 -42 -21 -56 -18 -278 3 -231 3 -235 28 -271 40 -59 88 -80 174 -75 60 3 79 8 108 30 19 15 43 43 52 63 l18 37 20 -41 c13 -27 36 -51 64 -67 39 -23 53 -26 118 -22 61 3 79 8 109 30 19 15 41 41 49 58 l13 31 5 -58 5 -58 130 -3 c155 -3 186 8 223 78 19 38 22 60 22 149 0 86 -4 112 -21 149 l-22 44 33 132 c19 73 31 140 27 149 -5 14 -20 17 -86 17 l-80 0 -10 -37 c-6 -21 -19 -74 -28 -118 l-18 -80 -5 115 -5 115 -80 0 -80 0 -5 -58 -5 -58 -13 31 c-8 17 -30 43 -49 58 -30 22 -48 27 -109 30 -65 4 -79 1 -118 -22 -28 -16 -51 -40 -64 -67 l-20 -41 -18 37 c-9 20 -33 48 -52 63 -30 23 -47 27 -111 30 -67 3 -81 0 -118 -23z m180 1 c43 -17 95 -78 102 -118 3 -18 5 -58 3 -88 l-3 -55 -58 -3 c-34 -2 -65 2 -72 8 -8 7 -15 36 -17 68 -2 45 -7 57 -21 60 -43 8 -47 -10 -47 -202 0 -198 6 -225 48 -212 18 6 22 15 22 51 0 26 6 50 16 59 19 19 104 22 122 4 15 -15 16 -107 1 -145 -36 -95 -156 -141 -247 -94 -89 45 -101 84 -102 326 0 105 5 207 10 227 29 102 144 156 243 114z m380 0 c39 -16 82 -61 96 -99 7 -17 11 -114 11 -237 0 -123 -4 -220 -11 -237 -36 -95 -156 -141 -247 -94 -89 45 -101 84 -102 326 0 105 5 207 10 227 29 102 144 156 243 114z m265 2 c8 -8 12 -51 12 -126 0 -148 14 -144 54 14 l31 119 64 3 c40 2 67 -1 71 -8 4 -7 -8 -73 -27 -147 l-34 -135 27 -54 c24 -49 26 -62 22 -147 -4 -102 -20 -143 -71 -181 -24 -18 -45 -21 -143 -24 -80 -3 -119 0 -129 8 -13 10 -15 65 -15 335 0 178 3 330 6 339 8 20 113 23 132 4z m-698 -213 l5 -60 83 -3 82 -3 0 -67 0 -67 -73 3 c-85 4 -94 -2 -99 -68 -2 -32 -7 -45 -18 -45 -13 0 -15 29 -18 188 -2 176 -1 188 15 185 14 -2 19 -16 23 -63z"/>
 <path d="M690 634 c-14 -10 -31 -24 -38 -31 -8 -7 -18 -10 -24 -7 -23 14 -28 -30 -28 -240 0 -250 5 -267 84 -305 54 -27 81 -26 136 2 55 28 69 49 47 71 -11 11 -14 26 -10 49 4 26 0 37 -21 56 l-26 24 0 -46 c0 -26 5 -47 10 -47 6 0 10 -9 10 -20 0 -21 -46 -50 -80 -50 -31 0 -77 27 -92 53 -18 31 -24 387 -8 428 12 28 30 40 30 18 0 -7 16 -8 45 -3 64 9 85 -11 85 -83 l0 -53 50 0 c28 0 50 4 50 8 0 5 -11 19 -24 31 -15 14 -26 39 -30 65 -9 56 -41 87 -98 93 -31 3 -50 -1 -68 -13z"/>
 <path d="M1055 620 c-20 -16 -42 -27 -47 -24 -23 14 -28 -31 -28 -240 0 -250 5 -267 84 -305 54 -27 81 -26 136 2 51 26 72 53 51 66 -10 7 -13 52 -12 222 1 187 -1 218 -16 249 -34 66 -106 79 -168 30z m9 -35 c4 -12 10 -14 25 -5 32 17 69 12 85 -12 13 -18 16 -57 16 -214 0 -134 3 -193 11 -196 7 -2 9 -13 5 -24 -7 -23 -45 -44 -77 -44 -30 0 -77 27 -91 53 -18 31 -24 387 -8 428 14 32 25 37 34 14z"/>
 <path d="M1102 558 c-9 -9 -12 -62 -12 -193 0 -197 6 -224 48 -210 22 6 22 8 20 208 -3 194 -4 202 -23 205 -11 1 -26 -3 -33 -10z m43 -199 c0 -157 -2 -184 -15 -184 -13 0 -15 27 -18 175 -3 182 0 204 21 197 9 -3 12 -49 12 -188z"/>
 <path d="M1557 579 c-22 -89 -25 -114 -15 -121 24 -15 33 -2 55 83 26 104 26 99 5 127 -17 22 -18 21 -45 -89z"/>
 <path d="M1360 355 l0 -325 93 0 c132 1 217 42 173 86 -15 14 -19 14 -50 -5 -39 -24 -122 -28 -150 -8 -16 12 -18 28 -17 132 1 65 4 122 7 127 3 4 12 1 20 -7 9 -9 33 -15 58 -15 62 0 76 -20 76 -108 0 -41 4 -72 10 -72 6 0 10 -8 10 -17 1 -16 2 -16 15 1 21 27 20 157 -1 201 -27 57 -41 64 -112 56 -47 -6 -65 -4 -73 6 -7 8 -11 55 -10 118 2 105 -6 138 -34 149 -13 5 -15 -32 -15 -319z"/>
 <path d="M1480 235 c0 -82 1 -85 23 -85 36 0 47 19 47 85 0 66 -11 85 -47 85 -22 0 -23 -3 -23 -85z m44 59 c32 -32 13 -134 -25 -134 -5 0 -9 34 -9 75 0 76 6 87 34 59z"/>
 <path d="M1822 703 c-47 -23 -81 -71 -94 -135 -16 -77 -11 -85 66 -93 74 -8 82 -5 91 34 9 42 32 59 51 39 14 -14 14 -19 1 -44 -9 -16 -47 -57 -85 -91 -118 -106 -153 -218 -99 -323 33 -67 75 -90 159 -90 38 0 84 6 102 14 33 14 85 70 88 97 1 8 4 -13 7 -46 l6 -60 80 0 80 0 3 241 2 240 64 -9 c77 -12 92 -7 101 32 9 42 31 59 51 39 14 -14 14 -19 1 -44 -9 -16 -47 -57 -85 -91 -118 -106 -153 -218 -99 -323 33 -67 75 -90 159 -90 38 0 84 6 102 14 33 14 85 70 88 97 1 8 4 -13 7 -46 l6 -60 80 0 80 0 3 277 2 277 85 3 85 3 2 -280 3 -280 170 0 170 0 0 75 0 75 -87 3 -88 3 0 59 0 59 63 3 62 3 0 75 0 75 -62 3 -63 3 0 59 0 59 88 3 87 3 0 75 0 75 -340 0 -340 0 -3 -54 -3 -55 -24 41 c-14 23 -40 48 -59 57 -45 21 -157 21 -203 0 -42 -20 -80 -69 -90 -115 -7 -28 -9 -21 -13 46 l-5 80 -80 0 -80 0 -3 -54 -3 -55 -24 41 c-14 23 -40 48 -59 57 -45 21 -160 21 -204 -1z m205 -19 c48 -36 66 -70 71 -134 6 -84 -27 -151 -115 -228 -36 -31 -71 -69 -79 -84 -17 -33 -18 -70 -2 -86 21 -21 39 -13 54 24 l15 37 52 -6 c69 -9 83 -24 67 -73 -54 -170 -294 -164 -341 8 -23 86 3 142 122 264 72 74 89 97 89 121 0 59 -55 71 -78 18 -26 -59 -27 -60 -78 -57 -67 4 -78 17 -64 74 14 54 61 115 104 134 45 21 148 14 183 -12z m231 14 c17 -17 17 -659 0 -676 -16 -16 -110 -16 -126 0 -9 9 -12 97 -12 334 0 177 3 329 6 338 8 20 113 23 132 4z m329 -14 c48 -36 66 -70 71 -134 6 -84 -27 -151 -115 -228 -36 -31 -71 -69 -79 -84 -17 -33 -18 -70 -2 -86 21 -21 39 -13 54 24 l15 37 52 -6 c69 -9 83 -24 67 -73 -54 -170 -294 -164 -341 8 -23 86 3 142 122 264 72 74 89 97 89 121 0 59 -55 71 -78 18 -26 -59 -27 -60 -78 -57 -67 4 -78 17 -64 74 14 54 61 115 104 134 45 21 148 14 183 -12z m401 14 c7 -7 12 -33 12 -58 0 -25 -5 -51 -12 -58 -7 -7 -42 -12 -85 -12 l-73 0 0 -268 c0 -195 -3 -271 -12 -280 -16 -16 -110 -16 -126 0 -9 9 -12 97 -12 334 0 177 3 329 6 338 5 14 28 16 148 16 97 0 146 -4 154 -12z m357 -58 l0 -65 -87 -3 -88 -3 0 -69 0 -69 63 -3 62 -3 0 -65 0 -65 -62 -3 -63 -3 0 -69 0 -69 88 -3 87 -3 0 -65 0 -65 -149 -3 c-101 -2 -153 1 -162 9 -11 9 -14 71 -14 334 0 178 3 331 6 339 6 14 27 16 163 14 l156 -3 0 -65z m-1235 -314 l0 -125 -32 10 c-18 5 -52 9 -75 9 -37 0 -44 -4 -58 -30 -17 -33 -30 -38 -39 -15 -10 27 11 59 88 131 41 40 83 88 93 108 9 20 18 36 20 36 2 0 3 -56 3 -124z m560 0 l0 -125 -32 10 c-18 5 -52 9 -75 9 -37 0 -44 -4 -58 -30 -17 -33 -30 -38 -39 -15 -10 27 11 59 88 131 41 40 83 88 93 108 9 20 18 36 20 36 2 0 3 -56 3 -124z"/>
 <path d="M1880 649 c-14 -6 -35 -19 -46 -30 -12 -11 -27 -19 -34 -17 -16 4 -40 -38 -40 -69 0 -21 5 -23 46 -23 l46 0 -17 26 c-10 16 -14 35 -11 50 6 22 8 23 22 9 18 -17 30 -19 39 -5 11 17 61 11 80 -10 12 -13 19 -35 18 -58 -1 -20 3 -40 9 -43 17 -11 -18 -61 -81 -117 -34 -29 -61 -57 -61 -61 0 -4 6 -15 13 -26 14 -17 15 -17 33 1 11 10 40 36 66 58 50 40 95 102 84 114 -4 3 -11 1 -15 -7 -12 -19 -20 8 -10 34 4 11 8 41 8 66 1 57 -25 94 -77 109 -43 12 -40 12 -72 -1z"/>
 <path d="M1779 253 c-14 -37 -11 -110 6 -143 32 -62 106 -91 182 -71 41 11 75 40 79 67 1 8 -1 12 -5 10 -4 -3 -18 11 -31 31 -15 22 -26 30 -29 22 -2 -7 1 -15 8 -17 18 -6 13 -30 -11 -46 -38 -27 -95 -20 -129 13 -24 24 -29 38 -29 76 0 25 4 54 10 64 8 16 5 19 -16 19 -18 0 -28 -8 -35 -25z"/>
 <path d="M2150 639 c0 -41 0 -42 20 -24 11 10 20 24 20 31 0 7 -9 18 -20 24 -19 10 -20 8 -20 -31z"/>
 <path d="M2173 538 c-13 -14 -23 -37 -23 -53 l0 -30 26 26 c18 18 25 34 22 53 l-3 28 -22 -24z"/>
 <path d="M2173 398 c-13 -14 -23 -37 -23 -53 l0 -30 26 26 c18 18 25 34 22 53 l-3 28 -22 -24z"/>
 <path d="M2173 258 c-13 -13 -23 -35 -23 -48 l0 -25 26 26 c16 16 24 35 22 49 l-3 22 -22 -24z"/>
 <path d="M2173 128 c-15 -16 -23 -37 -23 -61 l0 -37 45 0 c49 0 55 8 26 35 -11 9 -21 33 -23 52 l-3 35 -22 -24z"/>
 <path d="M2440 649 c-14 -6 -35 -19 -46 -30 -12 -11 -27 -19 -34 -17 -16 4 -40 -38 -40 -69 0 -21 5 -23 46 -23 l46 0 -17 26 c-10 16 -14 35 -11 50 6 22 8 23 22 9 18 -17 30 -19 39 -5 11 17 61 11 80 -10 12 -13 19 -35 18 -58 -1 -20 3 -40 9 -43 17 -11 -18 -61 -81 -117 -34 -29 -61 -57 -61 -61 0 -4 6 -15 13 -26 14 -17 15 -17 33 1 11 10 40 36 66 58 50 40 95 102 84 114 -4 3 -11 1 -15 -7 -12 -19 -20 8 -10 34 4 11 8 41 8 66 1 57 -25 94 -77 109 -43 12 -40 12 -72 -1z"/>
 <path d="M2339 253 c-14 -37 -11 -110 6 -143 32 -62 106 -91 182 -71 41 11 75 40 79 67 1 8 -1 12 -5 10 -4 -3 -18 11 -31 31 -15 22 -26 30 -29 22 -2 -7 1 -15 8 -17 18 -6 13 -30 -11 -46 -38 -27 -95 -20 -129 13 -24 24 -29 38 -29 76 0 25 4 54 10 64 8 16 5 19 -16 19 -18 0 -28 -8 -35 -25z"/>
 <path d="M2710 355 l0 -325 45 0 c50 0 55 8 25 35 -19 17 -20 31 -20 280 0 144 3 264 6 268 4 3 13 0 21 -8 10 -11 38 -15 99 -15 91 0 104 10 58 44 -22 16 -38 18 -105 13 -44 -3 -81 -1 -85 4 -3 5 -14 14 -25 19 -19 11 -19 4 -19 -315z"/>
 <path d="M3050 355 l0 -325 135 0 c142 0 158 6 117 43 -14 13 -38 17 -93 17 -109 0 -112 4 -110 130 1 57 4 107 7 112 3 4 12 1 20 -7 21 -20 144 -21 144 -2 0 31 -37 49 -94 46 -31 -1 -61 2 -67 8 -11 11 -14 217 -3 235 3 4 12 1 20 -7 12 -11 38 -15 105 -15 95 0 109 9 69 45 -17 15 -33 17 -110 13 -50 -3 -93 -2 -96 3 -3 5 -14 14 -25 19 -19 11 -19 4 -19 -315z"/>
 <path d="M3462 703 c-47 -23 -81 -71 -94 -135 -16 -77 -11 -85 66 -93 74 -8 82 -5 91 34 9 42 32 59 51 39 14 -14 14 -19 1 -44 -9 -16 -47 -57 -85 -91 -118 -106 -153 -218 -99 -323 33 -67 75 -90 159 -90 84 0 127 17 163 64 31 41 47 128 25 141 -7 4 -40 10 -75 13 -63 5 -63 4 -79 -27 -18 -34 -31 -39 -40 -16 -10 27 11 59 87 131 95 90 121 138 122 224 0 80 -34 148 -89 174 -45 21 -160 21 -204 -1z m205 -19 c48 -36 66 -70 71 -134 6 -84 -27 -151 -115 -228 -36 -31 -71 -69 -79 -84 -17 -33 -18 -70 -2 -86 21 -21 39 -13 54 24 l15 37 52 -6 c69 -9 83 -24 67 -73 -54 -170 -294 -164 -341 8 -23 86 3 142 122 264 72 74 89 97 89 121 0 59 -55 71 -78 18 -26 -59 -27 -60 -78 -57 -67 4 -78 17 -64 74 14 54 61 115 104 134 45 21 148 14 183 -12z"/>
 <path d="M3520 649 c-14 -6 -35 -19 -46 -30 -12 -11 -27 -19 -34 -17 -16 4 -40 -38 -40 -69 0 -21 5 -23 46 -23 l46 0 -17 26 c-10 16 -14 35 -11 50 6 22 8 23 22 9 18 -17 30 -19 39 -5 11 17 61 11 80 -10 12 -13 19 -35 18 -58 -1 -20 3 -40 9 -43 17 -11 -18 -61 -81 -117 -34 -29 -61 -57 -61 -61 0 -4 6 -15 13 -26 14 -17 15 -17 33 1 11 10 40 36 66 58 50 40 95 102 84 114 -4 3 -11 1 -15 -7 -12 -19 -20 8 -10 34 4 11 8 41 8 66 1 57 -25 94 -77 109 -43 12 -40 12 -72 -1z"/>
 <path d="M3419 253 c-14 -37 -11 -110 6 -143 32 -62 106 -91 182 -71 41 11 75 40 79 67 1 8 -1 12 -5 10 -4 -3 -18 11 -31 31 -15 22 -26 30 -29 22 -2 -7 1 -15 8 -17 18 -6 13 -30 -11 -46 -38 -27 -95 -20 -129 13 -24 24 -29 38 -29 76 0 25 4 54 10 64 8 16 5 19 -16 19 -18 0 -28 -8 -35 -25z"/>
 </g>

</svg>