<!DOCTYPE svg PUBLIC "-//W3C//DTD SVG 20010904//EN" "http://www.w3.org/TR/2001/REC-SVG-20010904/DTD/svg10.dtd">
<svg version="1.0" xmlns="http://www.w3.org/2000/svg" width="1388px" height="741px" viewBox="0 0 13880 7410" preserveAspectRatio="xMidYMid meet">
<g id="layer1" fill="#09579a" stroke="none">
 <path d="M2730 6369 c0 -6 -27 -65 -59 -132 -33 -67 -100 -205 -149 -307 -50 -102 -116 -239 -147 -305 -31 -66 -78 -165 -105 -220 -27 -55 -90 -185 -140 -290 -50 -104 -113 -235 -140 -290 -26 -55 -74 -154 -105 -220 -32 -66 -98 -203 -147 -305 -122 -252 -166 -343 -238 -495 -34 -71 -103 -213 -152 -315 -87 -180 -111 -229 -236 -490 -33 -69 -101 -210 -152 -315 -50 -104 -117 -242 -147 -305 -118 -245 -156 -323 -272 -562 -67 -135 -121 -256 -121 -267 0 -21 2 -21 359 -21 198 0 366 3 375 6 9 3 16 12 16 19 0 7 6 26 14 42 16 30 80 171 122 268 7 17 33 74 58 127 25 54 46 100 46 102 0 5 38 89 92 206 44 96 63 138 93 205 15 33 40 89 57 125 43 93 63 137 93 205 15 33 40 89 57 125 16 36 38 83 48 105 27 61 65 142 103 225 19 41 47 102 62 135 36 81 48 106 93 205 22 47 49 108 62 135 34 77 46 103 88 195 22 47 49 108 62 135 12 28 28 64 35 80 8 17 35 75 60 130 26 55 53 115 61 133 37 84 44 101 72 162 118 262 186 399 196 396 8 -2 85 -149 122 -231 7 -16 35 -77 63 -135 43 -93 64 -137 141 -305 10 -22 38 -83 63 -135 25 -52 59 -126 77 -165 33 -72 55 -119 133 -285 25 -52 59 -126 77 -165 33 -73 58 -125 133 -285 44 -93 75 -160 138 -297 17 -38 51 -111 76 -163 24 -52 57 -122 73 -155 15 -33 38 -82 50 -110 13 -27 47 -102 77 -165 53 -112 86 -184 123 -265 10 -22 38 -83 63 -135 56 -118 132 -284 185 -402 l17 -37 373 -1 c204 0 372 3 372 7 0 3 -67 141 -149 307 -81 166 -188 382 -236 481 -106 220 -193 398 -410 840 -92 187 -205 419 -252 515 -207 424 -251 513 -406 830 -91 184 -211 430 -267 545 -56 116 -137 282 -180 370 -43 88 -153 313 -245 500 -91 187 -172 353 -180 368 -8 16 -15 35 -15 43 0 8 -7 14 -15 14 -8 0 -15 -5 -15 -11z"/>
 <path d="M2397 3973 c-4 -3 -7 -528 -7 -1165 l0 -1158 338 0 337 0 0 1163 0 1162 -331 3 c-182 1 -333 -1 -337 -5z"/>
 <path d="M12080 3400 c-115 -18 -205 -65 -283 -149 -85 -91 -121 -194 -120 -346 2 -178 59 -297 189 -390 84 -61 152 -85 259 -92 100 -7 182 8 262 47 170 84 243 219 243 453 l0 77 -375 0 c-370 0 -375 0 -375 20 0 60 59 133 144 178 46 24 61 27 156 27 117 0 166 -15 232 -73 l35 -32 59 62 58 61 -44 40 c-25 21 -66 50 -93 63 -91 47 -242 70 -347 54z m340 -595 c0 -73 -50 -144 -128 -182 -73 -36 -181 -38 -253 -6 -90 40 -158 125 -159 196 l0 27 270 0 270 0 0 -35z"/>
 <path d="M13309 3400 c-67 -12 -136 -44 -201 -96 l-58 -45 0 65 0 66 -100 0 -100 0 0 -665 0 -665 100 0 100 0 0 266 0 266 51 -56 c30 -33 73 -66 107 -83 52 -25 67 -28 162 -27 123 0 185 20 274 86 263 195 240 650 -42 829 -79 50 -202 75 -293 59z m148 -206 c103 -49 167 -156 166 -279 0 -113 -44 -204 -125 -261 -57 -41 -99 -54 -173 -54 -158 0 -275 133 -275 314 0 94 21 154 76 215 90 100 208 123 331 65z"/>
 <path d="M6171 3288 c-116 -284 -461 -1147 -461 -1152 0 -3 53 -6 118 -6 l117 0 189 461 c104 253 192 462 196 464 3 2 92 -204 196 -458 l190 -462 121 -3 122 -3 -253 628 -253 628 -120 3 -120 3 -42 -103z"/>
 <path d="M7110 2910 l0 -480 100 0 100 0 0 480 0 480 -100 0 -100 0 0 -480z"/>
 <path d="M7715 2769 c-138 -342 -251 -625 -253 -630 -2 -5 50 -9 116 -9 l120 0 61 148 c33 81 118 287 188 457 71 171 132 312 137 314 5 1 67 -139 138 -311 70 -172 156 -379 189 -460 l61 -148 120 0 c66 0 118 4 116 9 -1 5 -115 288 -253 630 l-249 621 -121 0 -121 0 -249 -621z"/>
 <path d="M8860 2910 l0 -480 100 0 100 0 0 480 0 480 -100 0 -100 0 0 -480z"/>
 <path d="M10116 3258 c-26 -73 -125 -356 -220 -628 l-172 -495 109 -3 c61 -1 114 1 118 5 4 4 76 205 160 446 83 240 155 437 158 437 3 0 49 -139 101 -308 52 -169 114 -369 138 -445 l43 -138 96 3 95 3 135 435 c74 239 138 439 142 443 4 4 76 -189 160 -430 84 -241 156 -442 160 -446 4 -4 57 -6 118 -5 l110 3 -183 525 c-101 289 -200 571 -220 628 l-36 102 -107 0 -106 0 -131 -428 c-71 -235 -134 -426 -139 -425 -5 1 -68 193 -140 427 l-130 426 -106 0 -107 0 -46 -132z"/>
 <path d="M7142 2260 c-41 -25 -66 -81 -58 -129 6 -42 48 -87 93 -102 42 -14 90 1 127 40 74 77 15 211 -94 211 -19 0 -50 -9 -68 -20z"/>
 <path d="M8904 2265 c-66 -34 -87 -136 -38 -194 79 -94 224 -37 224 89 0 87 -105 146 -186 105z"/>
 <path d="M2675 1403 c-154 -36 -285 -139 -343 -268 -38 -85 -52 -150 -52 -246 0 -106 8 -138 63 -247 31 -61 116 -162 137 -162 5 0 10 -3 10 -8 0 -4 19 -17 43 -29 134 -69 261 -71 397 -5 19 9 37 19 40 22 3 3 20 18 39 33 42 34 100 109 122 157 51 109 52 113 53 235 1 93 -3 131 -17 170 -28 77 -61 145 -69 145 -5 0 -8 5 -8 10 0 15 -94 110 -108 110 -7 0 -12 4 -12 8 0 13 -86 50 -155 67 -58 15 -101 17 -140 8z"/>
 </g>
<g id="layer2" fill="#f27d2d" stroke="none">
 <path d="M2450 7244 c-209 -29 -383 -69 -522 -120 -35 -13 -57 -21 -163 -61 -36 -14 -282 -134 -323 -158 -85 -49 -260 -173 -347 -245 -61 -50 -315 -307 -315 -318 0 -7 -3 -12 -8 -12 -4 0 -27 -26 -52 -57 -24 -32 -48 -59 -52 -61 -4 -2 -8 -10 -8 -17 0 -7 -3 -15 -7 -17 -14 -6 -100 -133 -109 -160 -4 -10 -10 -18 -14 -18 -5 0 -13 -12 -19 -27 -15 -35 -42 -86 -50 -93 -8 -7 -72 -142 -116 -245 -16 -39 -68 -195 -88 -265 -70 -245 -101 -467 -99 -715 1 -194 22 -380 64 -555 6 -25 14 -61 18 -80 10 -46 35 -136 51 -180 31 -88 54 -146 61 -155 4 -5 8 -15 8 -23 0 -13 119 -262 130 -272 3 -3 19 -27 35 -55 40 -70 116 -179 126 -183 5 -2 9 -8 9 -13 0 -9 57 -87 82 -113 7 -7 37 -43 67 -80 30 -36 59 -66 63 -66 5 0 16 17 25 38 33 81 126 279 214 454 51 103 56 119 43 132 -7 8 -14 19 -14 25 0 6 -4 11 -9 11 -5 0 -14 14 -21 30 -7 17 -16 30 -21 30 -5 0 -9 5 -9 10 0 6 -12 29 -27 53 -39 62 -123 233 -123 250 0 9 -4 18 -9 21 -8 5 -64 175 -91 274 -45 172 -62 491 -36 683 26 183 58 325 92 407 8 18 14 39 14 47 0 7 6 26 14 42 14 27 54 115 76 165 6 13 21 41 33 63 13 22 32 56 42 75 11 19 23 39 28 45 4 5 39 53 78 105 38 52 74 97 79 98 6 2 10 8 10 12 0 9 137 148 196 200 16 14 69 55 119 92 49 37 95 72 102 78 7 5 15 10 18 10 3 0 24 12 47 26 181 115 456 215 698 255 128 21 478 23 600 4 137 -22 289 -60 399 -100 67 -24 242 -104 251 -114 3 -3 23 -15 45 -26 22 -11 45 -23 50 -28 13 -10 133 -89 153 -102 9 -5 21 -15 27 -21 5 -6 39 -35 75 -64 76 -61 189 -177 233 -237 17 -24 34 -43 39 -43 4 0 8 -7 8 -15 0 -8 4 -15 9 -15 24 0 261 -418 261 -462 0 -8 7 -23 15 -34 8 -10 15 -28 15 -39 0 -11 7 -33 15 -49 8 -15 15 -35 15 -44 0 -8 6 -38 14 -66 24 -82 44 -203 56 -321 33 -348 -28 -690 -179 -1015 -19 -40 -120 -213 -156 -266 -14 -21 -28 -48 -31 -60 -4 -15 35 -105 135 -306 78 -157 141 -290 141 -296 0 -23 19 -11 62 39 23 29 49 58 56 65 27 28 82 105 82 114 0 6 4 10 8 10 4 0 28 30 52 67 24 38 60 93 80 123 38 58 175 332 205 410 9 25 23 60 31 78 8 18 14 39 14 47 0 8 6 29 14 47 25 58 65 227 93 388 14 85 18 160 17 390 0 293 -2 313 -50 540 -28 130 -106 384 -125 405 -5 5 -9 16 -9 24 0 16 -144 312 -171 351 -9 14 -45 68 -79 120 -35 52 -67 97 -72 98 -4 2 -8 10 -8 18 0 8 -4 14 -8 14 -5 0 -20 16 -34 36 -57 79 -222 253 -333 349 -83 72 -232 185 -243 185 -6 0 -12 3 -14 8 -4 8 -65 52 -73 52 -3 0 -24 12 -48 27 -41 26 -238 126 -307 156 -103 45 -134 57 -146 57 -7 0 -28 6 -46 14 -35 15 -99 35 -188 59 -50 14 -125 27 -315 58 -115 18 -503 20 -625 3z"/>
 <path d="M6033 5450 c-143 -15 -246 -51 -283 -98 -29 -36 -25 -88 11 -160 51 -103 127 -152 233 -152 57 0 53 13 -10 40 -51 22 -56 36 -16 47 45 13 508 8 612 -6 172 -24 337 -84 425 -156 l29 -24 -30 -38 c-72 -90 -211 -155 -405 -188 -198 -34 -441 -136 -487 -205 -21 -31 -23 -43 -19 -105 11 -153 67 -294 148 -375 62 -60 214 -138 344 -175 169 -49 304 -67 505 -68 257 -1 381 27 396 89 12 48 -3 142 -30 188 -27 47 -49 60 -191 115 -44 17 -118 53 -165 80 -93 55 -120 54 -77 -2 25 -34 64 -62 163 -120 43 -26 46 -30 29 -39 -24 -14 -268 -3 -395 17 -233 38 -413 107 -488 189 -50 54 -56 94 -17 124 13 10 75 34 137 51 313 89 477 156 604 246 120 86 163 189 131 313 -54 204 -241 327 -587 386 -201 34 -401 43 -567 26z"/>
 <path d="M9930 5363 c-42 -13 -62 -30 -80 -68 -30 -62 -25 -123 19 -255 21 -63 37 -117 35 -119 -1 -2 -63 53 -136 123 -154 146 -255 228 -316 257 -58 28 -117 21 -150 -17 -22 -25 -24 -35 -20 -103 3 -63 12 -95 50 -183 25 -60 42 -108 38 -108 -5 0 -32 30 -61 68 -181 232 -269 312 -342 312 -73 0 -118 -50 -152 -168 l-21 -72 -53 65 c-74 91 -170 176 -240 214 -152 81 -265 2 -294 -205 -6 -44 -12 -80 -13 -82 -1 -2 -24 13 -50 33 -59 45 -76 52 -153 61 -55 6 -64 10 -91 43 -34 44 -137 121 -183 138 -119 43 -230 -20 -299 -172 -18 -41 -22 -68 -23 -151 0 -98 1 -102 42 -185 100 -200 323 -377 488 -387 114 -7 170 28 144 91 -11 26 -11 31 1 35 8 3 25 16 38 29 23 23 24 30 19 106 -5 83 -35 184 -76 266 -20 39 -21 45 -8 59 14 13 21 12 70 -11 73 -36 83 -50 102 -140 73 -354 375 -868 596 -1016 107 -71 135 -50 126 94 -13 222 -181 530 -469 858 -69 78 -78 93 -79 130 -4 113 20 185 70 211 68 36 106 18 253 -117 70 -63 90 -88 99 -121 20 -76 117 -213 261 -370 l54 -60 66 -4 c78 -5 138 11 138 37 0 52 -160 242 -284 336 -70 54 -86 83 -86 162 0 90 46 74 220 -77 143 -124 195 -176 278 -280 140 -175 231 -260 278 -260 32 0 54 36 54 90 0 53 -21 91 -140 260 -100 143 -150 240 -150 294 0 23 5 47 12 54 53 53 234 -63 408 -263 53 -61 190 -247 190 -259 0 -11 -155 -7 -189 5 -18 6 -34 9 -38 6 -17 -18 74 -185 128 -234 40 -37 90 -51 198 -59 l103 -7 39 -63 c72 -113 152 -165 233 -150 62 12 60 22 -35 144 -32 42 -55 78 -51 80 4 1 33 5 65 10 l58 7 -38 62 c-21 34 -62 96 -91 138 l-52 75 -88 -6 -87 -6 -68 120 c-88 154 -128 258 -135 345 -4 61 -2 70 18 92 13 14 33 25 44 25 70 0 336 -185 336 -233 0 -57 102 -226 200 -330 79 -84 143 -119 212 -115 44 2 54 7 64 27 29 57 -46 191 -187 336 -54 55 -103 113 -108 128 -27 69 -2 127 63 152 41 16 48 16 98 1 52 -15 162 -85 221 -139 15 -15 27 -37 27 -50 0 -37 72 -174 127 -242 67 -83 174 -169 262 -213 69 -34 82 -37 162 -37 71 0 91 3 108 19 22 20 29 70 11 81 -17 11 -11 22 20 35 37 15 44 37 43 121 -1 71 -37 193 -79 268 -43 77 2 90 99 28 38 -24 54 -42 73 -85 33 -74 127 -213 192 -283 66 -72 120 -96 179 -80 40 11 53 26 53 60 0 10 -37 60 -82 112 -139 158 -191 239 -181 280 12 44 34 27 186 -146 163 -186 394 -371 476 -382 37 -5 38 -4 55 38 10 24 20 64 23 91 6 53 2 61 -103 180 -120 137 -188 265 -165 314 37 81 206 -36 492 -342 255 -273 269 -288 269 -308 0 -26 38 -93 62 -110 23 -16 83 -21 112 -10 11 4 16 19 16 53 0 25 9 80 21 121 60 214 38 339 -85 476 -28 32 -86 84 -129 116 -73 54 -76 58 -52 64 71 18 184 -28 318 -129 49 -37 90 -67 93 -67 2 0 4 19 4 43 -1 40 -4 45 -86 117 -112 98 -192 154 -284 198 -92 45 -175 49 -252 12 -101 -47 -188 -157 -188 -238 0 -18 -4 -32 -9 -30 -5 2 -62 52 -127 112 -131 120 -219 182 -270 192 -100 19 -151 -83 -109 -222 8 -27 55 -119 104 -204 49 -85 88 -157 85 -159 -6 -7 -75 50 -161 132 -45 43 -135 146 -199 229 -64 82 -127 154 -140 160 -55 25 -106 -45 -127 -172 -6 -36 -12 -67 -13 -68 -1 -2 -29 15 -61 37 -46 33 -73 44 -128 53 -67 11 -73 14 -141 78 -94 89 -165 124 -239 118 -97 -8 -183 -91 -221 -212 l-17 -54 -101 102 c-125 125 -195 169 -280 174 -51 3 -66 0 -96 -20 -54 -37 -95 -122 -115 -241 l-6 -38 -112 106 c-188 178 -333 263 -407 238z m-2228 -237 c20 -7 59 -28 87 -45 l49 -32 -5 -97 c-6 -113 10 -175 79 -301 l40 -74 -38 23 c-156 95 -274 190 -314 255 -20 33 -50 155 -50 204 0 32 25 58 66 71 39 11 43 11 86 -4z m3694 -21 c105 -53 107 -56 95 -102 -25 -88 -5 -190 63 -325 25 -49 42 -88 39 -88 -4 0 -40 21 -81 46 -105 66 -212 154 -244 200 -24 35 -68 180 -68 225 0 38 51 72 116 78 6 1 42 -15 80 -34z m1831 -128 c59 -64 71 -123 54 -276 -7 -64 -15 -118 -17 -120 -2 -2 -77 71 -167 162 -89 92 -158 167 -153 167 34 0 97 46 130 95 l38 54 37 -18 c20 -11 55 -39 78 -64z m-4605 -532 c118 -177 205 -387 170 -409 -16 -9 -87 58 -132 124 -57 85 -138 251 -176 365 -19 56 -34 109 -34 116 1 23 107 -99 172 -196z"/>
 <path d="M10922 4325 c-26 -22 -32 -34 -32 -66 0 -88 91 -199 163 -199 99 0 128 102 58 204 -39 56 -68 76 -119 83 -31 4 -44 0 -70 -22z"/>
 <path d="M3066 2677 c0 -380 1 -762 2 -847 l3 -155 99 -64 c55 -36 100 -68 100 -73 0 -4 6 -8 14 -8 8 0 16 -3 18 -7 2 -5 22 -21 46 -37 23 -16 42 -33 42 -37 0 -5 7 -9 15 -9 8 0 15 -4 15 -8 0 -5 21 -23 46 -41 25 -18 56 -43 69 -55 13 -11 52 -46 86 -76 75 -65 197 -178 254 -235 74 -74 295 -315 295 -321 0 -3 10 -15 23 -27 13 -12 41 -44 62 -72 22 -27 47 -57 56 -66 8 -9 38 -47 64 -83 27 -36 52 -66 57 -66 4 0 8 -7 8 -15 0 -8 3 -15 8 -15 4 0 20 -20 35 -45 16 -25 33 -45 38 -45 5 0 9 -4 9 -10 0 -5 9 -20 20 -32 10 -13 26 -32 35 -43 15 -19 15 -19 6 5 -5 14 -34 75 -64 135 -30 61 -83 168 -117 240 -69 144 -140 292 -253 525 -41 85 -96 200 -122 255 -48 102 -78 165 -208 435 -41 85 -96 200 -122 255 -51 109 -87 183 -225 470 -129 268 -153 318 -200 420 -23 50 -68 144 -100 210 -32 66 -70 146 -84 178 -14 31 -27 57 -28 57 -2 0 -3 -312 -2 -693z"/>
 <path d="M2370 3195 c-6 -15 -22 -52 -36 -83 -14 -31 -32 -70 -39 -87 -13 -28 -66 -142 -136 -292 -50 -109 -86 -184 -149 -318 -34 -71 -74 -157 -90 -190 -49 -104 -120 -255 -182 -385 -33 -69 -73 -153 -89 -188 -16 -34 -42 -90 -58 -125 -17 -34 -54 -114 -84 -177 -30 -63 -64 -137 -77 -165 -23 -52 -70 -150 -172 -365 -33 -69 -75 -156 -93 -195 -18 -38 -61 -128 -95 -198 -35 -70 -60 -130 -57 -133 3 -3 8 4 12 15 3 12 11 21 16 21 5 0 9 5 9 11 0 5 20 41 45 79 25 38 45 73 45 79 0 5 4 11 9 13 5 2 35 41 67 88 31 47 61 86 66 88 4 2 8 10 8 18 0 8 3 14 8 14 4 0 21 20 37 45 17 24 33 45 38 45 4 0 7 7 7 15 0 8 3 15 8 15 4 0 30 28 57 62 28 35 65 78 83 96 17 18 32 34 32 37 0 5 220 225 226 225 3 0 17 13 32 28 15 16 50 46 77 68 28 21 52 42 55 45 13 14 173 129 235 169 105 67 108 69 132 79 11 6 24 15 28 20 3 6 15 11 26 11 19 0 19 14 19 770 0 424 -2 770 -5 770 -3 0 -10 -11 -15 -25z"/>
 </g>
<g id="layer3" fill="#fdfdfc" stroke="none">
 <path d="M2363 7403 c-40 -2 -73 -8 -73 -12 0 -5 -36 -12 -80 -15 -44 -4 -80 -11 -80 -16 0 -4 -27 -11 -60 -15 -33 -4 -60 -11 -60 -15 0 -4 -25 -11 -55 -15 -30 -3 -55 -10 -55 -15 0 -5 -20 -12 -45 -16 -25 -3 -45 -10 -45 -14 0 -4 -16 -11 -35 -14 -19 -4 -35 -11 -35 -15 0 -5 -18 -11 -40 -15 -22 -3 -40 -10 -40 -15 0 -5 -16 -12 -35 -15 -19 -4 -35 -11 -35 -16 0 -4 -13 -11 -30 -15 -16 -4 -30 -10 -30 -15 0 -5 -13 -11 -30 -15 -16 -4 -30 -10 -30 -15 0 -5 -13 -11 -30 -15 -16 -4 -30 -10 -30 -15 0 -4 -11 -11 -25 -14 -14 -4 -25 -10 -25 -15 0 -5 -13 -12 -29 -16 -16 -3 -32 -13 -35 -21 -3 -8 -12 -14 -21 -14 -8 0 -15 -4 -15 -10 0 -5 -11 -12 -25 -16 -14 -3 -25 -10 -25 -15 0 -5 -8 -13 -17 -16 -10 -4 -27 -16 -39 -29 -11 -12 -31 -25 -42 -29 -12 -3 -22 -11 -22 -16 0 -5 -8 -13 -17 -16 -10 -4 -35 -24 -55 -45 -21 -21 -42 -38 -47 -38 -12 0 -331 -318 -331 -330 0 -5 -16 -24 -35 -43 -19 -19 -35 -38 -35 -42 0 -4 -11 -18 -24 -30 -13 -12 -27 -31 -30 -43 -4 -11 -13 -23 -21 -26 -8 -3 -15 -12 -15 -21 0 -8 -4 -15 -10 -15 -5 0 -12 -11 -16 -24 -3 -14 -12 -27 -20 -30 -8 -3 -14 -12 -14 -21 0 -8 -4 -15 -10 -15 -5 0 -12 -11 -16 -24 -3 -14 -12 -27 -20 -30 -8 -3 -14 -12 -14 -21 0 -8 -4 -15 -9 -15 -5 0 -12 -13 -16 -30 -4 -16 -10 -30 -15 -30 -4 0 -11 -11 -14 -25 -4 -14 -10 -25 -15 -25 -5 0 -12 -13 -16 -30 -4 -16 -11 -30 -15 -30 -5 0 -12 -16 -16 -35 -3 -19 -10 -35 -14 -35 -5 0 -11 -13 -15 -30 -4 -16 -10 -30 -15 -30 -4 0 -10 -18 -14 -40 -3 -22 -10 -40 -16 -40 -5 0 -12 -20 -16 -45 -3 -25 -10 -45 -15 -45 -4 0 -11 -20 -15 -45 -3 -25 -10 -45 -15 -45 -4 0 -11 -22 -15 -50 -4 -27 -10 -50 -14 -50 -5 0 -12 -30 -16 -67 -3 -38 -10 -70 -15 -73 -4 -3 -11 -44 -15 -90 -4 -47 -12 -88 -18 -92 -16 -10 -16 -796 0 -806 6 -4 14 -45 18 -92 4 -46 11 -87 15 -90 5 -3 12 -35 15 -72 4 -38 11 -68 16 -68 4 0 10 -22 14 -50 4 -27 11 -50 15 -50 5 0 12 -25 16 -55 3 -30 10 -55 15 -55 5 0 12 -16 16 -35 3 -19 10 -35 14 -35 4 0 10 -18 14 -40 3 -22 10 -40 16 -40 5 0 12 -16 16 -35 3 -19 10 -35 14 -35 5 0 11 -13 15 -30 4 -17 10 -30 15 -30 5 0 11 -14 15 -30 4 -17 10 -30 15 -30 5 0 11 -14 15 -30 4 -17 11 -30 16 -30 5 0 11 -11 15 -25 3 -14 10 -25 15 -25 5 0 9 -7 9 -15 0 -9 6 -18 14 -21 8 -3 18 -19 21 -35 4 -16 10 -29 15 -29 5 0 12 -10 15 -22 4 -11 17 -31 29 -42 13 -12 25 -29 29 -38 3 -10 11 -18 17 -18 5 0 10 -7 10 -15 0 -8 9 -23 20 -32 11 -10 20 -21 20 -26 0 -5 18 -27 40 -48 22 -22 40 -43 40 -49 0 -5 16 -24 35 -43 19 -19 35 -37 35 -42 0 -4 18 -25 40 -46 39 -38 50 -59 31 -59 -5 0 -12 -13 -16 -30 -4 -17 -10 -30 -15 -30 -5 0 -11 -13 -15 -30 -4 -16 -10 -30 -15 -30 -4 0 -11 -16 -14 -35 -4 -19 -11 -35 -16 -35 -4 0 -11 -14 -15 -30 -4 -17 -10 -30 -15 -30 -5 0 -11 -14 -15 -30 -4 -17 -10 -30 -15 -30 -5 0 -11 -14 -15 -30 -4 -17 -10 -30 -15 -30 -5 0 -11 -14 -15 -30 -4 -17 -10 -30 -15 -30 -5 0 -11 -13 -15 -30 -4 -16 -10 -30 -15 -30 -5 0 -11 -14 -15 -30 -4 -17 -10 -30 -15 -30 -4 0 -10 -18 -14 -40 -3 -22 -10 -40 -15 -40 -5 0 -12 -13 -16 -30 -4 -16 -10 -30 -15 -30 -5 0 -11 -14 -15 -30 -4 -17 -10 -30 -15 -30 -5 0 -11 -14 -15 -30 -4 -17 -10 -30 -15 -30 -5 0 -11 -14 -15 -30 -4 -17 -10 -30 -15 -30 -5 0 -11 -13 -15 -30 -4 -16 -10 -30 -15 -30 -5 0 -11 -13 -15 -30 -4 -16 -10 -30 -15 -30 -4 0 -11 -16 -14 -35 -4 -19 -11 -35 -16 -35 -6 0 -10 -40 -10 -90 l0 -90 41 -40 41 -40 455 0 455 0 39 39 c22 21 39 44 39 50 0 6 4 11 9 11 5 0 12 13 16 30 4 16 10 30 15 30 4 0 10 18 14 40 3 22 10 40 15 40 5 0 12 13 16 30 4 16 10 30 15 30 4 0 11 16 14 35 4 19 11 35 16 35 4 0 11 14 15 30 4 17 10 30 15 30 4 0 10 18 14 40 3 22 10 40 15 40 5 0 12 13 16 30 4 16 10 30 15 30 4 0 11 16 14 35 4 19 11 35 16 35 4 0 11 13 15 30 4 16 11 30 16 30 5 0 12 18 15 40 4 22 10 40 14 40 5 0 11 13 15 30 4 16 10 30 15 30 5 0 11 13 15 30 4 16 10 30 15 30 4 0 11 16 14 35 4 19 11 35 16 35 4 0 11 13 15 30 4 17 11 30 16 30 5 0 12 18 15 40 4 22 10 40 14 40 5 0 11 13 15 30 4 16 10 30 15 30 5 0 11 13 15 30 4 16 10 30 15 30 4 0 11 16 14 35 4 19 11 35 16 35 4 0 11 14 15 30 4 17 11 30 16 30 5 0 12 18 15 40 4 22 10 40 14 40 5 0 11 13 15 30 4 16 10 30 15 30 5 0 11 14 15 30 4 17 10 30 15 30 4 0 11 16 14 35 4 19 11 35 16 35 4 0 11 13 15 30 4 16 11 30 16 30 5 0 12 18 15 40 4 22 10 40 14 40 5 0 11 13 15 30 4 16 10 30 15 30 5 0 11 14 15 30 4 17 11 30 15 30 5 0 12 16 16 35 3 19 10 35 14 35 5 0 11 13 15 30 4 16 10 30 14 30 5 0 13 15 19 33 9 27 11 18 9 -62 -1 -64 -6 -96 -14 -98 -7 -3 -15 -20 -19 -39 -3 -19 -10 -34 -14 -34 -5 0 -11 -13 -15 -30 -4 -16 -10 -30 -15 -30 -5 0 -11 -14 -15 -30 -4 -17 -10 -30 -15 -30 -4 0 -10 -18 -14 -40 -3 -22 -10 -40 -15 -40 -5 0 -12 -13 -16 -30 -4 -16 -10 -30 -15 -30 -5 0 -11 -14 -15 -30 -4 -17 -10 -30 -15 -30 -4 0 -11 -16 -14 -35 -4 -19 -11 -35 -16 -35 -4 0 -11 -14 -15 -30 -4 -17 -10 -30 -15 -30 -5 0 -11 -14 -15 -30 -4 -17 -11 -30 -16 -30 -5 0 -12 -18 -15 -40 -4 -22 -10 -40 -14 -40 -5 0 -11 -14 -15 -30 -4 -17 -10 -30 -15 -30 -5 0 -11 -13 -15 -30 -4 -17 -10 -30 -15 -30 -5 0 -11 -14 -15 -30 -4 -17 -11 -30 -15 -30 -5 0 -12 -16 -16 -35 -3 -19 -10 -35 -14 -35 -5 0 -11 -14 -15 -30 -4 -17 -10 -30 -15 -30 -5 0 -11 -14 -15 -30 -4 -16 -10 -30 -15 -30 -5 0 -11 -13 -15 -30 -4 -16 -10 -30 -15 -30 -5 0 -11 -13 -15 -30 -4 -16 -11 -30 -16 -30 -5 0 -12 -18 -15 -40 -4 -22 -10 -40 -14 -40 -5 0 -11 -14 -15 -30 -4 -17 -10 -30 -15 -30 -5 0 -11 -14 -15 -30 -4 -17 -10 -30 -15 -30 -5 0 -11 -14 -15 -30 -4 -17 -10 -30 -15 -30 -5 0 -11 -14 -15 -30 -4 -17 -10 -30 -15 -30 -4 0 -11 -16 -14 -35 -4 -19 -11 -35 -16 -35 -4 0 -11 -14 -15 -30 -4 -17 -10 -30 -15 -30 -5 0 -11 -14 -15 -30 -4 -17 -10 -30 -15 -30 -5 0 -11 -14 -15 -30 -4 -17 -10 -30 -15 -30 -4 0 -10 -18 -14 -40 -3 -22 -10 -40 -15 -40 -5 0 -12 -13 -16 -30 -4 -16 -10 -30 -15 -30 -5 0 -11 -13 -15 -30 -4 -16 -10 -30 -15 -30 -4 0 -11 -16 -14 -35 -4 -19 -11 -35 -16 -35 -4 0 -11 -14 -15 -30 -4 -17 -10 -30 -15 -30 -5 0 -11 -14 -15 -30 -4 -17 -10 -30 -15 -30 -5 0 -11 -14 -15 -30 -4 -17 -11 -30 -16 -30 -5 0 -12 -18 -15 -40 -4 -22 -10 -40 -14 -40 -5 0 -11 -13 -15 -30 -4 -16 -10 -30 -15 -30 -5 0 -11 -13 -15 -30 -4 -16 -10 -30 -15 -30 -5 0 -11 -13 -15 -30 -4 -16 -11 -30 -15 -30 -5 0 -12 -16 -16 -35 -3 -19 -10 -35 -14 -35 -5 0 -11 -14 -15 -30 -4 -17 -10 -30 -15 -30 -5 0 -11 -14 -15 -30 -4 -17 -10 -30 -15 -30 -5 0 -11 -14 -15 -30 -4 -17 -10 -30 -15 -30 -5 0 -11 -14 -15 -30 -4 -17 -10 -30 -15 -30 -5 0 -11 -14 -15 -30 -4 -17 -10 -30 -15 -30 -5 0 -11 -13 -15 -30 -4 -16 -10 -30 -15 -30 -5 0 -11 -13 -15 -30 -4 -16 -11 -30 -16 -30 -5 0 -9 -41 -9 -90 l0 -90 41 -40 c41 -40 42 -40 121 -40 l80 0 54 54 c30 30 54 59 54 65 0 6 4 11 9 11 5 0 12 11 15 25 4 14 11 25 16 25 6 0 10 7 10 15 0 9 6 18 14 21 8 3 18 19 21 35 4 16 11 29 16 29 5 0 11 11 15 24 3 14 12 27 20 30 8 3 14 12 14 21 0 8 4 15 9 15 5 0 13 10 16 22 4 11 17 31 29 42 13 12 25 29 29 39 3 9 11 17 17 17 5 0 10 7 10 15 0 8 9 23 20 32 11 10 20 21 20 26 0 5 14 22 30 39 17 16 30 35 30 41 1 7 14 23 30 37 17 13 30 28 30 33 0 5 20 29 45 54 25 24 45 48 45 53 0 11 219 230 230 230 5 0 29 20 53 45 25 25 49 45 54 45 5 0 20 13 34 29 14 15 34 31 46 35 12 4 24 13 27 21 3 8 12 15 21 15 8 0 15 4 15 10 0 5 11 12 24 16 14 3 27 12 30 20 3 8 12 14 21 14 8 0 15 4 15 10 0 5 11 12 24 16 14 3 27 12 30 20 3 8 12 14 21 14 8 0 15 4 15 9 0 5 11 12 25 15 14 4 25 11 25 16 0 6 10 10 23 9 14 0 17 -3 7 -6 -21 -9 -200 -189 -200 -202 0 -6 -4 -11 -10 -11 -5 0 -12 -11 -16 -25 -3 -14 -10 -25 -14 -25 -5 0 -12 -15 -15 -33 -4 -17 -12 -35 -17 -38 -5 -3 -12 -43 -15 -88 -3 -44 -10 -81 -14 -81 -5 0 -9 -45 -9 -100 0 -55 4 -100 9 -100 4 0 11 -35 15 -77 3 -42 10 -79 15 -83 5 -3 13 -18 16 -33 4 -15 11 -27 15 -27 4 0 11 -12 15 -27 3 -15 17 -37 31 -50 13 -12 24 -26 24 -31 0 -15 106 -119 128 -126 11 -4 23 -13 26 -21 3 -8 12 -15 21 -15 8 0 15 -4 15 -9 0 -5 12 -12 27 -16 15 -3 31 -12 35 -18 10 -17 456 -17 466 0 4 6 20 15 35 18 15 4 27 11 27 15 0 5 9 12 20 15 30 9 209 192 216 221 3 13 10 24 14 24 5 0 11 14 15 30 4 17 10 30 15 30 5 0 12 25 15 55 4 30 11 55 16 55 5 0 9 79 9 175 0 96 -4 175 -9 175 -4 0 -11 27 -15 60 -4 33 -11 60 -16 60 -4 0 -11 14 -15 30 -4 17 -11 30 -16 30 -5 0 -9 7 -9 15 0 9 -7 18 -15 21 -8 3 -17 15 -21 27 -3 11 -20 33 -37 49 -17 15 -26 28 -19 28 7 0 20 -9 29 -20 10 -11 22 -20 27 -20 5 0 19 -11 32 -25 13 -14 27 -25 33 -25 5 0 23 -14 39 -30 17 -17 34 -30 39 -30 5 0 20 -13 33 -30 14 -16 30 -29 37 -30 7 0 34 -22 61 -50 27 -28 53 -50 56 -50 10 0 376 -366 376 -375 0 -4 25 -32 55 -61 30 -30 55 -59 55 -64 0 -5 16 -24 35 -43 19 -19 35 -37 35 -41 0 -4 14 -21 30 -38 17 -16 30 -35 30 -41 1 -7 14 -23 30 -37 17 -13 30 -28 30 -33 0 -6 11 -20 25 -33 14 -13 25 -27 25 -33 0 -5 13 -22 28 -38 16 -15 31 -36 35 -45 3 -10 11 -18 17 -18 5 0 10 -7 10 -15 0 -8 9 -23 20 -32 11 -10 20 -21 20 -26 0 -4 22 -30 49 -58 l48 -49 80 0 c80 0 81 0 122 40 l41 40 0 95 c0 52 -4 95 -9 95 -5 0 -12 13 -16 30 -4 16 -10 30 -15 30 -5 0 -11 13 -15 30 -4 16 -10 30 -15 30 -5 0 -11 13 -15 30 -4 16 -10 30 -15 30 -5 0 -11 13 -15 30 -4 16 -11 30 -16 30 -5 0 -12 18 -15 40 -4 22 -10 40 -14 40 -5 0 -11 13 -15 30 -4 16 -10 30 -15 30 -5 0 -11 13 -15 30 -4 16 -10 30 -15 30 -5 0 -11 13 -15 30 -4 16 -10 30 -15 30 -5 0 -11 14 -15 30 -4 17 -10 30 -15 30 -5 0 -11 14 -15 30 -4 17 -10 30 -15 30 -5 0 -11 13 -15 30 -4 16 -11 30 -15 30 -5 0 -12 16 -16 35 -3 19 -10 35 -14 35 -5 0 -11 13 -15 30 -4 16 -10 30 -15 30 -5 0 -11 13 -15 30 -4 16 -10 30 -15 30 -5 0 -11 13 -15 30 -4 16 -10 30 -15 30 -5 0 -11 14 -15 30 -4 17 -10 30 -15 30 -5 0 -11 14 -15 30 -4 17 -10 30 -15 30 -4 0 -10 18 -14 40 -3 22 -10 40 -15 40 -5 0 -12 13 -16 30 -4 16 -10 30 -15 30 -5 0 -11 13 -15 30 -4 16 -10 30 -15 30 -5 0 -11 13 -15 30 -4 16 -10 30 -15 30 -5 0 -11 13 -15 30 -4 16 -11 30 -15 30 -5 0 -12 16 -16 35 -3 19 -10 35 -14 35 -5 0 -11 14 -15 30 -4 17 -10 30 -15 30 -5 0 -11 14 -15 30 -4 17 -10 30 -15 30 -5 0 -11 13 -15 30 -4 16 -10 30 -15 30 -5 0 -11 13 -15 30 -4 16 -10 30 -15 30 -5 0 -11 13 -15 30 -4 16 -10 30 -15 30 -4 0 -10 18 -14 40 -3 22 -10 40 -15 40 -5 0 -12 14 -16 30 -4 17 -10 30 -15 30 -5 0 -11 13 -15 30 -4 16 -10 30 -15 30 -5 0 -11 13 -15 30 -4 17 -10 30 -15 30 -5 0 -11 14 -15 30 -4 16 -11 30 -15 30 -5 0 -12 16 -16 35 -3 19 -10 35 -14 35 -5 0 -11 13 -15 30 -4 16 -10 30 -15 30 -5 0 -11 13 -15 30 -4 16 -10 30 -15 30 -5 0 -11 13 -15 30 -4 16 -10 30 -15 30 -5 0 -11 13 -15 30 -4 16 -10 30 -15 30 -5 0 -11 14 -15 30 -4 17 -11 30 -16 30 -5 0 -12 18 -15 40 -4 22 -10 40 -14 40 -5 0 -11 13 -15 30 -4 16 -10 30 -15 30 -5 0 -11 13 -15 30 -4 16 -10 30 -15 30 -5 0 -11 13 -15 30 -4 16 -10 30 -15 30 -5 0 -11 13 -15 30 -4 17 -10 30 -15 30 -4 0 -11 16 -14 35 -4 19 -11 35 -16 35 -4 0 -11 13 -15 30 -4 17 -10 30 -15 30 -5 0 -11 13 -15 30 -4 16 -10 30 -15 30 -5 0 -11 13 -15 30 -4 17 -10 30 -15 30 -5 0 -11 13 -15 30 -4 16 -11 30 -15 30 -5 0 -12 17 -16 38 -4 20 -12 40 -18 44 -6 4 -12 42 -13 85 -2 72 -1 74 8 36 6 -24 14 -43 19 -43 5 0 11 -14 15 -30 4 -17 10 -30 15 -30 5 0 11 -14 15 -30 4 -17 11 -30 15 -30 5 0 12 -16 16 -35 3 -19 10 -35 14 -35 5 0 11 -14 15 -30 4 -17 10 -30 15 -30 5 0 11 -14 15 -30 4 -17 10 -30 15 -30 5 0 11 -13 15 -30 4 -17 10 -30 15 -30 4 0 10 -18 14 -40 3 -22 10 -40 15 -40 5 0 12 -14 16 -30 4 -17 10 -30 15 -30 5 0 11 -14 15 -30 4 -17 11 -30 15 -30 5 0 12 -16 16 -35 3 -19 10 -35 14 -35 5 0 11 -13 15 -30 4 -16 10 -30 15 -30 5 0 11 -14 15 -30 4 -17 10 -30 15 -30 5 0 11 -14 15 -30 4 -17 10 -30 15 -30 4 0 10 -18 14 -40 3 -22 10 -40 15 -40 5 0 12 -14 16 -30 4 -17 10 -30 15 -30 5 0 11 -14 15 -30 4 -17 11 -30 15 -30 5 0 12 -16 16 -35 3 -19 10 -35 14 -35 5 0 11 -14 15 -30 4 -16 10 -30 15 -30 5 0 11 -14 15 -30 4 -17 11 -30 16 -30 5 0 12 -18 15 -40 4 -22 10 -40 14 -40 5 0 11 -14 15 -30 4 -17 10 -30 15 -30 5 0 11 -14 15 -30 4 -17 10 -30 15 -30 5 0 11 -14 15 -30 4 -17 10 -30 15 -30 4 0 11 -16 14 -35 4 -19 11 -35 16 -35 4 0 11 -14 15 -30 4 -17 10 -30 15 -30 5 0 11 -14 15 -30 4 -17 10 -30 15 -30 4 0 10 -18 14 -40 3 -22 10 -40 15 -40 5 0 12 -14 16 -30 4 -17 10 -30 15 -30 5 0 11 -14 15 -30 4 -17 10 -30 15 -30 4 0 11 -16 14 -35 4 -19 11 -35 15 -35 5 0 12 -12 15 -26 4 -14 29 -48 55 -75 l48 -49 448 0 447 0 40 40 40 39 -4 106 c-2 67 -7 108 -15 113 -6 4 -15 20 -18 35 -4 15 -11 27 -15 27 -5 0 -11 13 -15 30 -4 16 -10 30 -15 30 -5 0 -11 13 -15 30 -4 16 -10 30 -15 30 -5 0 -11 13 -15 30 -4 16 -10 30 -15 30 -5 0 -11 13 -15 30 -4 16 -10 30 -15 30 -5 0 -11 13 -15 30 -4 16 -10 30 -15 30 -5 0 -11 14 -15 30 -4 17 -10 30 -15 30 -5 0 -11 13 -15 30 -4 16 -10 30 -15 30 -5 0 -11 13 -15 30 -4 16 -10 30 -15 30 -4 0 -10 18 -14 40 -3 22 -10 40 -15 40 -5 0 -12 13 -16 30 -4 16 -10 30 -15 30 -5 0 -11 13 -15 30 -4 17 -10 30 -15 30 -5 0 -11 13 -15 30 -4 16 -10 30 -15 30 -5 0 -11 13 -15 30 -4 16 -10 30 -15 30 -5 0 -11 13 -15 30 -4 17 -10 30 -15 30 -5 0 -11 13 -15 30 -4 16 -10 30 -15 30 -5 0 -10 8 -12 18 -3 11 19 40 59 80 35 35 63 67 63 73 0 5 18 26 40 48 22 21 40 43 40 48 0 5 9 16 20 26 11 9 20 24 20 32 0 8 5 15 10 15 6 0 14 8 17 18 4 9 16 26 29 38 12 11 25 31 29 42 3 12 11 22 16 22 5 0 9 7 9 15 0 9 6 18 14 21 8 3 18 19 21 35 4 16 11 29 16 29 5 0 11 11 15 25 3 14 10 25 14 25 5 0 11 13 15 30 4 16 10 30 15 30 5 0 11 14 15 30 4 17 10 30 15 30 5 0 11 13 15 30 4 16 10 30 15 30 5 0 11 13 15 30 4 16 11 30 15 30 5 0 12 16 16 35 3 19 10 35 15 35 5 0 12 18 15 40 4 22 10 40 15 40 4 0 11 16 15 35 3 19 10 35 14 35 5 0 12 25 15 55 4 30 11 55 16 55 4 0 11 22 15 50 4 27 10 50 14 50 4 0 11 34 15 75 4 41 10 75 15 75 4 0 11 52 15 115 4 63 11 115 16 115 5 0 9 140 9 315 0 175 -4 315 -9 315 -5 0 -12 52 -16 115 -4 63 -11 115 -15 115 -4 0 -11 29 -15 65 -3 36 -10 65 -15 65 -4 0 -11 27 -15 60 -4 33 -11 60 -15 60 -4 0 -11 20 -14 45 -4 25 -11 45 -15 45 -5 0 -12 20 -15 45 -4 25 -11 45 -15 45 -5 0 -11 18 -15 40 -3 22 -10 40 -15 40 -5 0 -12 16 -15 35 -4 19 -11 35 -16 35 -4 0 -11 14 -15 30 -4 17 -10 30 -15 30 -5 0 -11 14 -15 30 -4 17 -10 30 -15 30 -5 0 -11 14 -15 30 -4 17 -10 30 -15 30 -5 0 -11 14 -15 30 -4 17 -10 30 -15 30 -4 0 -11 11 -14 25 -4 14 -11 25 -16 25 -6 0 -10 7 -10 15 0 9 -6 18 -14 21 -8 3 -18 19 -21 35 -4 16 -10 29 -15 29 -5 0 -12 10 -15 22 -4 11 -17 31 -29 42 -13 12 -25 29 -29 39 -3 9 -11 17 -16 17 -5 0 -13 10 -17 22 -4 12 -20 33 -35 47 -16 14 -29 29 -29 34 0 10 -395 407 -405 407 -4 0 -20 14 -37 30 -16 17 -34 30 -39 30 -6 0 -20 11 -33 25 -13 14 -27 25 -32 25 -5 0 -17 9 -27 20 -9 11 -23 20 -31 20 -8 0 -16 7 -20 15 -3 8 -12 15 -21 15 -8 0 -15 4 -15 10 0 5 -11 12 -25 16 -14 3 -25 10 -25 15 0 5 -7 9 -15 9 -9 0 -18 6 -21 14 -3 8 -19 18 -35 21 -16 4 -29 10 -29 15 0 5 -13 11 -30 15 -16 4 -30 10 -30 15 0 5 -13 11 -30 15 -16 4 -30 10 -30 15 0 5 -13 11 -30 15 -16 4 -30 10 -30 15 0 5 -13 11 -30 15 -16 4 -30 10 -30 15 0 4 -18 10 -40 14 -22 3 -40 10 -40 15 0 5 -16 12 -35 15 -19 4 -35 11 -35 15 0 5 -20 12 -45 15 -25 4 -45 11 -45 15 0 5 -25 12 -55 16 -30 3 -55 10 -55 15 0 4 -27 11 -60 15 -33 4 -60 10 -60 15 0 4 -39 11 -87 15 -49 4 -91 12 -95 18 -7 11 -682 19 -845 10z m712 -162 c190 -31 265 -44 315 -58 89 -24 153 -44 188 -59 18 -8 39 -14 46 -14 12 0 43 -12 146 -57 69 -30 266 -130 307 -156 24 -15 45 -27 48 -27 8 0 69 -44 73 -52 2 -5 8 -8 14 -8 11 0 160 -113 243 -185 111 -96 276 -270 333 -349 14 -20 29 -36 34 -36 4 0 8 -6 8 -14 0 -8 4 -16 8 -18 5 -1 37 -46 72 -98 34 -52 70 -106 79 -120 27 -39 171 -335 171 -351 0 -8 4 -19 9 -24 19 -21 97 -275 125 -405 48 -227 50 -247 50 -540 1 -230 -3 -305 -17 -390 -28 -161 -68 -330 -93 -388 -8 -18 -14 -39 -14 -47 0 -8 -6 -29 -14 -47 -8 -18 -22 -53 -31 -78 -30 -78 -167 -352 -205 -410 -20 -30 -56 -85 -80 -123 -24 -37 -48 -67 -52 -67 -4 0 -8 -4 -8 -10 0 -9 -55 -86 -82 -114 -7 -7 -33 -36 -56 -65 -43 -50 -62 -62 -62 -39 0 6 -63 139 -141 296 -100 201 -139 291 -135 306 3 12 17 39 31 60 36 53 137 226 156 266 121 259 188 551 189 825 0 153 -29 380 -66 511 -8 28 -14 58 -14 66 0 9 -7 29 -15 44 -8 16 -15 38 -15 49 0 11 -7 29 -15 39 -8 11 -15 26 -15 34 0 44 -237 462 -261 462 -5 0 -9 7 -9 15 0 8 -4 15 -8 15 -5 0 -22 19 -39 43 -44 60 -157 176 -233 237 -36 29 -70 58 -75 64 -6 6 -18 16 -27 21 -20 13 -140 92 -153 102 -5 5 -28 17 -50 28 -22 11 -42 23 -45 26 -9 10 -184 90 -251 114 -110 40 -262 78 -399 100 -122 19 -472 17 -600 -4 -242 -40 -517 -140 -698 -255 -23 -14 -44 -26 -47 -26 -3 0 -11 -5 -18 -10 -7 -6 -53 -41 -102 -78 -50 -37 -103 -78 -119 -92 -59 -52 -196 -191 -196 -200 0 -4 -4 -10 -10 -12 -5 -1 -41 -46 -79 -98 -39 -52 -74 -100 -78 -105 -5 -6 -17 -26 -28 -45 -10 -19 -29 -53 -42 -75 -12 -22 -27 -50 -33 -63 -22 -50 -62 -138 -76 -165 -8 -16 -14 -35 -14 -42 0 -8 -6 -29 -14 -47 -34 -82 -66 -224 -92 -407 -26 -192 -9 -511 36 -683 27 -99 83 -269 91 -274 5 -3 9 -12 9 -21 0 -17 84 -188 123 -250 15 -24 27 -47 27 -53 0 -5 4 -10 9 -10 5 0 14 -13 21 -30 7 -16 16 -30 21 -30 5 0 9 -5 9 -11 0 -6 7 -17 14 -25 13 -13 8 -29 -43 -132 -88 -175 -181 -373 -214 -454 -9 -21 -20 -38 -25 -38 -4 0 -33 30 -63 66 -30 37 -60 73 -67 80 -25 26 -82 104 -82 113 0 5 -4 11 -9 13 -10 4 -86 113 -126 183 -16 28 -32 52 -35 55 -11 10 -130 259 -130 272 0 8 -4 18 -8 23 -7 9 -30 67 -61 155 -16 44 -41 134 -51 180 -4 19 -12 55 -18 80 -76 318 -85 680 -26 1010 28 157 98 405 149 525 44 103 108 238 116 245 8 7 35 58 50 93 6 15 14 27 19 27 4 0 10 8 14 18 9 27 95 154 109 160 4 2 7 10 7 17 0 7 4 15 8 17 4 2 28 29 52 61 25 31 48 57 52 57 5 0 8 5 8 12 0 11 254 268 315 318 87 72 262 196 347 245 41 24 287 144 323 158 106 40 128 48 163 61 139 51 313 91 522 120 122 17 510 15 625 -3z m-495 -791 c0 -5 -4 -10 -9 -10 -5 0 -12 -13 -16 -30 -4 -16 -10 -30 -15 -30 -5 0 -11 -13 -15 -30 -4 -16 -10 -30 -15 -30 -5 0 -11 -13 -15 -30 -4 -16 -11 -30 -16 -30 -5 0 -12 -18 -15 -40 -4 -22 -10 -40 -14 -40 -5 0 -11 -13 -15 -30 -4 -16 -10 -30 -15 -30 -5 0 -11 -13 -15 -30 -4 -16 -10 -30 -15 -30 -5 0 -11 -13 -15 -30 -4 -16 -10 -30 -15 -30 -5 0 -11 -13 -15 -30 -4 -16 -10 -30 -15 -30 -5 0 -11 -13 -15 -30 -4 -16 -10 -30 -15 -30 -5 0 -11 -13 -15 -30 -4 -16 -10 -30 -15 -30 -4 0 -11 -16 -14 -35 -4 -19 -11 -35 -16 -35 -4 0 -11 -13 -15 -30 -4 -16 -10 -30 -15 -30 -5 0 -11 -13 -15 -30 -4 -16 -10 -30 -15 -30 -5 0 -11 -13 -15 -30 -4 -16 -10 -30 -15 -30 -5 0 -11 -13 -15 -30 -4 -16 -10 -30 -15 -30 -5 0 -11 -13 -15 -30 -4 -16 -11 -30 -16 -30 -5 0 -12 -18 -15 -40 -4 -22 -10 -40 -14 -40 -5 0 -11 -13 -15 -30 -4 -16 -10 -30 -15 -30 -5 0 -11 -13 -15 -30 -4 -16 -10 -30 -15 -30 -5 0 -11 -13 -15 -30 -4 -16 -10 -30 -15 -30 -5 0 -11 -13 -15 -30 -4 -16 -10 -30 -15 -30 -5 0 -11 -13 -15 -30 -4 -16 -10 -30 -15 -30 -5 0 -11 -13 -15 -30 -4 -16 -10 -30 -15 -30 -4 0 -11 -16 -14 -35 -4 -19 -11 -35 -16 -35 -4 0 -11 -13 -15 -30 -4 -16 -10 -30 -15 -30 -5 0 -11 -13 -15 -30 -4 -16 -10 -30 -15 -30 -5 0 -11 -13 -15 -30 -4 -16 -10 -30 -15 -30 -5 0 -11 -13 -15 -30 -4 -16 -10 -30 -15 -30 -5 0 -11 -13 -15 -30 -4 -16 -11 -30 -16 -30 -5 0 -12 -18 -15 -40 -4 -22 -10 -40 -14 -40 -5 0 -11 -13 -15 -30 -4 -16 -10 -30 -15 -30 -5 0 -11 -13 -15 -30 -4 -16 -10 -30 -15 -30 -5 0 -11 -13 -15 -30 -4 -16 -10 -30 -15 -30 -5 0 -11 -13 -15 -30 -4 -16 -10 -30 -15 -30 -5 0 -11 -13 -15 -30 -4 -16 -11 -30 -15 -30 -5 0 -12 -16 -16 -35 -3 -19 -10 -35 -14 -35 -5 0 -11 -13 -15 -30 -4 -16 -10 -30 -15 -30 -5 0 -11 -13 -15 -30 -4 -17 -10 -30 -15 -30 -5 0 -11 -13 -15 -30 -4 -17 -10 -30 -15 -30 -5 0 -11 -13 -15 -30 -4 -16 -10 -30 -15 -30 -5 0 -11 -13 -15 -30 -4 -16 -10 -30 -15 -30 -5 0 -11 -13 -15 -30 -4 -16 -10 -30 -15 -30 -4 0 -10 -18 -14 -40 -3 -22 -10 -40 -15 -40 -5 0 -12 -14 -16 -30 -8 -36 -30 -39 -39 -5 -4 14 -10 25 -15 25 -5 0 -12 13 -16 30 -4 17 -10 30 -15 30 -5 0 -11 13 -15 30 -4 16 -10 30 -15 30 -5 0 -11 13 -15 30 -4 16 -10 30 -15 30 -5 0 -11 13 -15 30 -4 16 -10 30 -15 30 -4 0 -11 16 -14 35 -4 19 -11 35 -15 35 -5 0 -12 20 -15 45 -4 25 -11 45 -16 45 -5 0 -12 25 -15 55 -4 30 -11 55 -15 55 -4 0 -11 28 -15 63 -4 34 -12 65 -19 69 -16 10 -16 536 0 546 6 4 15 37 18 75 4 37 11 67 16 67 4 0 10 23 14 50 4 28 11 50 15 50 5 0 12 20 15 45 4 25 11 45 15 45 5 0 11 18 15 40 3 22 10 40 15 40 5 0 12 16 15 35 4 19 11 35 16 35 4 0 11 14 15 30 4 17 10 30 15 30 5 0 11 14 15 30 4 17 10 30 15 30 4 0 11 11 14 25 4 14 10 25 15 25 5 0 12 13 16 29 3 16 13 32 21 35 8 3 14 12 14 21 0 8 4 15 9 15 5 0 13 10 16 22 4 11 18 31 31 43 13 12 24 26 24 32 0 5 13 20 30 33 16 14 29 30 30 37 0 15 148 163 163 163 7 1 23 14 37 30 13 17 28 30 33 30 6 0 20 11 32 24 12 13 32 27 43 31 12 3 22 11 22 16 0 5 7 9 15 9 9 0 18 6 21 14 3 8 19 18 35 21 16 4 29 11 29 16 0 5 11 11 25 15 14 3 25 10 25 14 0 5 14 11 30 15 17 4 30 10 30 15 0 5 14 11 30 15 17 4 30 10 30 15 0 5 14 11 30 15 17 4 30 10 30 15 0 4 16 11 35 14 19 4 35 11 35 15 0 5 20 12 45 15 25 4 45 11 45 16 0 5 25 12 55 15 30 4 55 11 55 15 0 4 27 11 60 15 33 4 60 11 60 15 0 5 21 11 48 13 26 2 55 4 65 5 9 1 17 -2 17 -8z m480 -10 c3 -4 33 -11 68 -15 34 -4 62 -11 62 -15 0 -4 20 -11 45 -14 25 -4 45 -11 45 -15 0 -5 20 -12 45 -15 25 -4 45 -11 45 -15 0 -5 18 -11 40 -15 22 -3 40 -10 40 -16 0 -5 16 -12 35 -16 19 -3 35 -10 35 -14 0 -5 14 -11 30 -15 17 -4 30 -10 30 -15 0 -4 11 -11 25 -14 14 -4 25 -10 25 -15 0 -5 13 -12 29 -16 16 -3 32 -13 35 -21 3 -8 12 -14 21 -14 8 0 15 -4 15 -9 0 -5 11 -12 25 -15 14 -4 25 -11 25 -16 0 -6 7 -10 15 -10 9 0 18 -7 21 -15 3 -8 15 -17 27 -21 12 -4 32 -20 46 -35 14 -16 29 -29 34 -29 10 0 197 -185 197 -195 0 -3 14 -20 30 -37 17 -16 30 -35 30 -43 0 -7 7 -15 15 -19 8 -3 15 -11 15 -17 0 -6 11 -22 24 -34 13 -12 27 -32 31 -45 4 -13 14 -30 21 -38 8 -7 14 -20 14 -28 0 -8 4 -14 9 -14 5 0 12 -13 16 -30 4 -16 10 -30 15 -30 5 0 11 -13 15 -30 4 -16 10 -30 15 -30 5 0 11 -13 15 -30 4 -16 11 -30 15 -30 5 0 12 -16 16 -35 3 -19 10 -35 15 -35 5 0 12 -18 15 -40 4 -22 10 -40 15 -40 4 0 11 -20 15 -45 3 -25 10 -45 14 -45 4 0 11 -27 15 -60 4 -33 11 -60 15 -60 5 0 12 -35 15 -77 4 -43 13 -81 19 -85 14 -9 14 -407 -1 -416 -5 -4 -13 -38 -17 -77 -4 -38 -11 -72 -15 -75 -5 -3 -12 -31 -16 -62 -4 -32 -11 -58 -16 -58 -4 0 -11 -20 -15 -45 -3 -25 -10 -45 -15 -45 -4 0 -11 -16 -15 -35 -3 -19 -10 -35 -15 -35 -5 0 -12 -18 -15 -40 -4 -22 -10 -40 -14 -40 -5 0 -11 -13 -15 -30 -4 -17 -10 -30 -15 -30 -5 0 -11 -13 -15 -29 -3 -16 -13 -32 -21 -35 -8 -3 -14 -12 -14 -21 0 -8 -4 -15 -10 -15 -5 0 -10 -6 -10 -14 0 -8 -6 -21 -13 -28 -8 -7 -16 -20 -19 -28 -4 -10 -8 -6 -13 13 -4 15 -11 27 -15 27 -5 0 -11 13 -15 30 -4 17 -10 30 -15 30 -5 0 -11 13 -15 30 -4 17 -10 30 -15 30 -5 0 -11 14 -15 30 -4 17 -10 30 -15 30 -5 0 -11 14 -15 30 -4 17 -10 30 -15 30 -5 0 -11 14 -15 30 -4 17 -10 30 -15 30 -5 0 -11 14 -15 30 -4 17 -10 30 -15 30 -5 0 -11 14 -15 30 -4 17 -10 30 -15 30 -5 0 -11 14 -15 30 -4 17 -10 30 -15 30 -5 0 -11 14 -15 30 -4 17 -10 30 -15 30 -4 0 -11 16 -14 35 -4 19 -11 35 -16 35 -4 0 -11 14 -15 30 -4 17 -10 30 -15 30 -5 0 -11 14 -15 30 -4 17 -10 30 -15 30 -5 0 -11 14 -15 30 -4 17 -10 30 -15 30 -5 0 -11 14 -15 30 -4 17 -10 30 -15 30 -5 0 -11 14 -15 30 -4 17 -10 30 -15 30 -5 0 -11 14 -15 30 -4 17 -10 30 -15 30 -5 0 -11 14 -15 30 -4 17 -10 30 -15 30 -5 0 -11 14 -15 30 -4 17 -10 30 -15 30 -5 0 -11 14 -15 30 -4 17 -10 30 -15 30 -5 0 -11 14 -15 30 -4 17 -11 30 -16 30 -5 0 -12 18 -15 40 -4 22 -10 40 -14 40 -5 0 -11 14 -15 30 -4 17 -10 30 -15 30 -5 0 -11 14 -15 30 -4 17 -10 30 -15 30 -5 0 -11 14 -15 30 -4 17 -10 30 -15 30 -5 0 -11 14 -15 30 -4 17 -10 30 -15 30 -5 0 -11 14 -15 30 -4 17 -10 30 -15 30 -5 0 -11 14 -15 30 -4 17 -10 30 -15 30 -5 0 -11 14 -15 30 -4 17 -10 30 -15 30 -5 0 -11 14 -15 30 -4 17 -10 30 -15 30 -5 0 -11 14 -15 30 -4 17 -10 30 -15 30 -5 0 -11 14 -15 30 -4 17 -10 30 -15 30 -5 0 -11 14 -15 30 -4 17 -10 30 -15 30 -4 0 -11 16 -14 35 -4 19 -11 35 -16 35 -4 0 -11 14 -15 30 -4 17 -10 30 -15 30 -5 0 -11 14 -15 30 -4 17 -10 30 -15 30 -5 0 -11 14 -15 30 -4 17 -10 30 -15 30 -5 0 -11 14 -15 30 -4 17 -10 30 -15 30 -5 0 -11 14 -15 30 -4 17 -10 30 -15 30 -5 0 -11 14 -15 30 -4 17 -10 30 -15 30 -5 0 -11 14 -15 30 -4 17 -10 30 -15 30 -5 0 -11 14 -15 30 -4 17 -10 30 -15 30 -5 0 -11 14 -15 30 -4 17 -11 30 -16 30 -5 0 -12 18 -15 40 -4 22 -10 40 -14 40 -5 0 -11 14 -15 30 -4 17 -11 30 -16 30 -5 0 -9 5 -9 11 0 12 141 2 150 -11z m-300 -74 c0 -8 7 -27 15 -43 8 -15 89 -181 180 -368 92 -187 202 -412 245 -500 43 -88 124 -254 180 -370 56 -115 176 -361 267 -545 155 -317 199 -406 406 -830 47 -96 160 -328 252 -515 217 -442 304 -620 410 -840 48 -99 155 -315 236 -481 82 -166 149 -304 149 -307 0 -4 -168 -7 -372 -7 l-373 1 -17 37 c-53 118 -129 284 -185 402 -25 52 -53 113 -63 135 -37 81 -70 153 -123 265 -30 63 -64 138 -77 165 -12 28 -35 77 -50 110 -16 33 -49 103 -73 155 -25 52 -59 125 -76 163 -63 137 -94 204 -138 297 -75 160 -100 212 -133 285 -18 39 -52 113 -77 165 -78 166 -100 213 -133 285 -18 39 -52 113 -77 165 -25 52 -53 113 -63 135 -77 168 -98 212 -141 305 -28 58 -56 119 -63 135 -37 82 -114 229 -122 231 -10 3 -78 -134 -196 -396 -28 -61 -35 -78 -72 -162 -8 -18 -35 -78 -61 -133 -25 -55 -52 -113 -60 -130 -7 -16 -23 -52 -35 -80 -13 -27 -40 -88 -62 -135 -42 -92 -54 -118 -88 -195 -13 -27 -40 -88 -62 -135 -45 -99 -57 -124 -93 -205 -15 -33 -43 -94 -62 -135 -38 -83 -76 -164 -103 -225 -10 -22 -32 -69 -48 -105 -17 -36 -42 -92 -57 -125 -30 -68 -50 -112 -93 -205 -17 -36 -42 -92 -57 -125 -30 -67 -49 -109 -93 -205 -54 -117 -92 -201 -92 -206 0 -2 -21 -48 -46 -102 -25 -53 -51 -110 -58 -127 -42 -97 -106 -238 -122 -268 -8 -16 -14 -35 -14 -42 0 -7 -7 -16 -16 -19 -9 -3 -177 -6 -375 -6 -357 0 -359 0 -359 21 0 11 54 132 121 267 116 239 154 317 272 562 30 63 97 201 147 305 51 105 119 246 152 315 125 261 149 310 236 490 49 102 118 244 152 315 72 152 116 243 238 495 49 102 115 239 147 305 31 66 79 165 105 220 27 55 90 186 140 290 50 105 113 235 140 290 27 55 74 154 105 220 31 66 97 203 147 305 49 102 116 240 149 307 32 67 59 126 59 132 0 6 7 11 15 11 8 0 15 -6 15 -14z m5 -1806 c4 -16 10 -30 15 -30 5 0 11 -13 15 -30 4 -16 11 -30 16 -30 5 0 12 -18 15 -40 4 -22 10 -40 14 -40 5 0 11 -13 15 -30 4 -16 10 -30 15 -30 5 0 11 -13 15 -30 4 -16 10 -30 15 -30 4 0 11 -12 15 -27 3 -15 10 -30 15 -33 4 -3 11 -20 15 -37 l7 -33 -207 0 -207 0 7 27 c3 15 10 30 15 33 5 3 12 18 15 33 4 15 11 27 16 27 4 0 11 16 15 35 3 19 10 35 14 35 5 0 11 14 15 30 4 17 11 30 16 30 5 0 12 18 15 40 4 22 10 40 14 40 5 0 11 14 15 30 4 17 10 30 15 30 5 0 11 14 15 30 4 17 13 30 20 30 7 0 16 -13 20 -30z m305 -895 c4 -277 7 -314 24 -350 10 -22 49 -103 86 -180 37 -77 84 -176 105 -220 41 -91 66 -143 195 -410 138 -287 174 -361 225 -470 26 -55 81 -170 122 -255 130 -270 160 -333 208 -435 26 -55 81 -170 122 -255 113 -233 184 -381 253 -525 34 -72 87 -179 117 -240 30 -60 59 -121 64 -135 9 -24 9 -24 -6 -5 -9 11 -25 30 -35 43 -11 12 -20 27 -20 32 0 6 -4 10 -9 10 -5 0 -22 20 -38 45 -15 25 -31 45 -35 45 -5 0 -8 7 -8 15 0 8 -4 15 -8 15 -5 0 -30 30 -57 66 -26 36 -56 74 -64 83 -9 9 -34 39 -56 66 -21 28 -49 60 -62 72 -13 12 -23 24 -23 27 0 6 -221 247 -295 321 -57 57 -179 170 -254 235 -34 30 -73 65 -86 76 -13 12 -44 37 -69 55 -25 18 -46 36 -46 41 0 4 -7 8 -15 8 -8 0 -15 4 -15 9 0 4 -19 21 -42 37 -24 16 -44 32 -46 37 -2 4 -10 7 -18 7 -8 0 -14 4 -14 8 0 15 -194 136 -198 124 -3 -9 -91 -12 -343 -12 -295 0 -339 2 -339 15 0 17 -35 20 -45 4 -4 -5 -17 -14 -28 -20 -24 -10 -27 -12 -132 -79 -62 -40 -222 -155 -235 -169 -3 -3 -27 -24 -55 -45 -27 -22 -62 -52 -77 -68 -15 -15 -29 -28 -32 -28 -6 0 -226 -220 -226 -225 0 -3 -15 -19 -32 -37 -18 -18 -55 -61 -83 -96 -27 -34 -53 -62 -57 -62 -5 0 -8 -7 -8 -15 0 -8 -3 -15 -7 -15 -5 0 -21 -21 -38 -45 -16 -25 -33 -45 -37 -45 -5 0 -8 -6 -8 -14 0 -8 -4 -16 -8 -18 -5 -2 -35 -41 -66 -88 -32 -47 -62 -86 -67 -88 -5 -2 -9 -8 -9 -13 0 -6 -20 -41 -45 -79 -25 -38 -45 -74 -45 -79 0 -6 -4 -11 -9 -11 -5 0 -13 -9 -16 -21 -4 -11 -9 -18 -12 -15 -3 3 22 63 57 133 34 70 77 160 95 198 18 39 60 126 93 195 102 215 149 313 172 365 13 28 47 102 77 165 30 63 67 143 84 178 16 34 42 90 58 125 16 34 56 118 89 187 62 130 133 281 182 385 16 33 56 119 90 190 34 72 74 157 89 190 16 33 42 89 59 125 53 114 123 264 137 295 7 17 25 57 40 90 15 33 33 73 41 89 11 23 14 102 14 396 0 202 3 370 7 373 4 4 155 6 337 5 l331 -3 5 -310z m-255 -2270 c69 -17 155 -54 155 -67 0 -4 5 -8 12 -8 14 0 108 -95 108 -110 0 -5 3 -10 8 -10 8 0 41 -68 69 -145 14 -39 18 -77 17 -170 -1 -122 -2 -126 -53 -235 -22 -48 -80 -123 -122 -157 -19 -15 -36 -30 -39 -33 -3 -3 -21 -13 -40 -22 -136 -66 -263 -64 -397 5 -24 12 -43 25 -43 29 0 5 -5 8 -10 8 -21 0 -106 101 -137 162 -55 109 -63 141 -63 247 0 96 14 161 52 246 49 110 162 210 282 250 88 29 120 30 201 10z"/>
 <path d="M5930 5495 c-189 -35 -260 -91 -260 -207 0 -101 89 -241 179 -281 25 -11 77 -21 122 -24 93 -7 119 7 119 64 l0 33 163 0 c189 0 317 -12 437 -40 93 -22 253 -96 247 -114 -7 -22 -113 -85 -187 -110 -41 -14 -132 -37 -201 -51 -143 -28 -237 -59 -354 -117 -138 -68 -155 -94 -155 -234 0 -249 105 -431 305 -532 230 -114 476 -159 828 -149 221 6 288 20 344 74 l36 33 -5 97 c-8 169 -45 216 -223 287 -65 26 -152 67 -192 91 -57 35 -84 45 -116 45 -55 0 -67 -13 -67 -72 0 -43 5 -52 44 -94 l44 -46 -61 7 c-275 29 -510 102 -595 186 -44 43 -40 45 135 94 256 70 441 144 555 223 66 45 156 147 169 190 6 22 9 81 7 138 -4 127 -32 189 -128 285 -116 116 -300 186 -588 223 -154 20 -494 20 -602 1z m475 -45 c478 -47 719 -174 782 -412 62 -238 -136 -389 -735 -559 -62 -17 -124 -41 -137 -51 -39 -30 -33 -70 17 -124 75 -82 255 -151 488 -189 127 -20 371 -31 395 -17 17 9 14 13 -29 39 -99 58 -138 86 -163 120 -43 56 -16 57 77 2 47 -27 121 -63 165 -80 142 -55 164 -68 191 -115 27 -46 42 -140 30 -188 -15 -62 -139 -90 -396 -89 -201 1 -336 19 -505 68 -130 37 -282 115 -344 175 -81 81 -137 222 -148 375 -4 62 -2 74 19 105 46 69 289 171 487 205 194 33 333 98 405 188 l30 38 -29 24 c-88 72 -253 132 -425 156 -104 14 -567 19 -612 6 -40 -11 -35 -25 16 -47 63 -27 67 -40 10 -40 -106 0 -182 49 -233 152 -52 104 -37 164 51 205 116 54 358 76 593 53z"/>
 <path d="M9845 5389 c-54 -48 -65 -77 -65 -174 0 -47 -3 -85 -6 -85 -3 0 -36 28 -72 61 -81 75 -166 140 -209 163 -22 11 -57 16 -111 16 -65 0 -84 -4 -106 -21 -38 -30 -56 -71 -56 -128 l0 -51 -62 63 c-82 82 -122 100 -204 95 -52 -3 -70 -9 -101 -35 -21 -16 -49 -52 -63 -79 l-25 -49 -50 54 c-68 73 -170 148 -228 167 -75 25 -174 16 -221 -19 -45 -35 -92 -115 -107 -184 -12 -51 -12 -51 -35 -36 -13 8 -52 17 -86 20 -62 6 -64 7 -141 80 -87 82 -141 112 -222 120 -144 15 -266 -75 -321 -237 -28 -84 -26 -256 5 -330 56 -134 210 -307 347 -388 188 -112 424 -92 424 36 0 26 7 45 20 57 23 21 40 74 40 130 1 37 4 31 39 -60 125 -328 368 -688 543 -805 55 -36 66 -40 124 -40 88 0 94 10 94 160 0 145 -20 222 -99 385 -90 182 -202 343 -386 550 -56 64 -59 70 -59 119 0 58 24 112 54 121 25 8 58 -15 165 -111 65 -58 82 -80 92 -115 6 -25 34 -78 61 -119 56 -86 230 -292 266 -315 54 -36 245 -28 288 12 25 23 23 84 -6 141 -34 67 -142 189 -246 278 -78 68 -107 100 -98 110 10 10 298 -255 354 -326 88 -110 204 -236 256 -277 36 -29 48 -33 103 -33 78 0 105 23 105 91 l0 44 30 -51 c43 -73 106 -142 154 -166 31 -16 65 -22 142 -26 l100 -4 38 -59 c42 -64 113 -134 152 -149 14 -6 60 -10 102 -10 103 0 122 13 122 83 0 44 -5 59 -35 96 -40 50 -43 61 -17 61 28 0 42 21 42 62 0 42 -59 146 -145 259 l-46 59 -87 0 c-75 0 -89 3 -99 19 -114 183 -196 389 -169 426 10 14 18 11 71 -20 33 -20 92 -61 131 -90 65 -50 72 -59 87 -112 33 -119 227 -366 327 -418 22 -12 65 -20 115 -23 76 -4 83 -3 113 23 30 25 32 31 32 88 0 104 -71 226 -210 362 -105 103 -122 147 -65 173 26 12 67 3 115 -27 67 -40 150 -106 150 -118 0 -31 43 -131 82 -192 24 -36 77 -100 118 -142 155 -158 311 -225 476 -204 75 9 124 53 124 110 0 25 8 47 25 67 23 27 25 38 25 116 0 76 -6 121 -26 197 -3 11 10 -8 29 -41 77 -140 208 -298 272 -328 20 -10 60 -16 103 -16 61 0 75 3 101 26 26 22 31 33 31 70 l0 43 92 -73 c139 -112 189 -139 263 -144 59 -4 63 -3 82 24 32 47 43 92 43 180 l0 83 -63 73 c-98 113 -146 177 -173 231 -22 43 -23 47 -6 38 69 -37 198 -150 327 -287 273 -289 290 -309 304 -355 30 -102 88 -143 194 -137 85 5 107 24 107 97 0 25 11 91 25 145 29 116 34 254 10 333 -8 28 -31 74 -50 103 -38 56 -35 56 46 -7 57 -44 103 -55 127 -31 7 7 12 42 12 89 l0 76 -80 76 c-101 97 -222 187 -308 229 -63 31 -73 33 -177 33 -95 0 -117 -3 -157 -23 -64 -31 -133 -95 -165 -150 -15 -26 -28 -49 -29 -51 -2 -2 -43 33 -91 78 -48 45 -113 99 -143 119 -51 34 -61 37 -141 40 l-85 4 -36 -40 c-31 -34 -37 -50 -43 -104 -4 -34 -2 -88 3 -118 6 -30 9 -56 8 -57 -1 -1 -38 45 -81 104 -106 140 -122 153 -191 153 -31 0 -64 -4 -74 -10 -25 -13 -55 -64 -75 -127 l-17 -51 -41 19 c-23 10 -62 19 -86 19 -40 0 -49 6 -119 71 -108 101 -155 123 -262 123 -68 0 -93 -4 -126 -21 -46 -24 -116 -99 -136 -144 -7 -16 -15 -29 -19 -29 -3 0 -18 14 -35 31 -45 47 -144 124 -193 149 -51 25 -129 36 -196 25 -79 -11 -141 -85 -181 -213 -3 -9 -22 2 -57 33 -205 182 -281 225 -399 225 -72 0 -80 -2 -113 -31z m180 -37 c73 -25 185 -107 312 -227 l112 -106 6 38 c20 119 61 204 115 241 30 20 45 23 96 20 85 -5 155 -49 280 -174 l101 -102 17 54 c38 121 124 204 221 212 74 6 145 -29 239 -118 68 -64 74 -67 141 -78 55 -9 82 -20 128 -53 32 -22 60 -39 61 -37 1 1 7 32 13 68 21 127 72 197 127 172 13 -6 76 -78 140 -160 64 -83 154 -186 199 -229 86 -82 155 -139 161 -132 3 2 -36 74 -85 159 -49 85 -96 177 -104 204 -42 139 9 241 109 222 51 -10 139 -72 270 -192 65 -60 122 -110 127 -112 5 -2 9 12 9 30 0 81 87 191 188 238 77 37 160 33 252 -12 92 -44 172 -100 284 -198 82 -72 85 -77 86 -117 0 -24 -2 -43 -4 -43 -3 0 -44 30 -93 67 -134 101 -247 147 -318 129 -24 -6 -21 -10 52 -64 43 -32 101 -84 129 -116 123 -137 145 -262 85 -476 -12 -41 -21 -96 -21 -121 0 -34 -5 -49 -16 -53 -29 -11 -89 -6 -112 10 -24 17 -62 84 -62 110 0 20 -14 35 -269 308 -286 306 -455 423 -492 342 -23 -49 45 -177 165 -314 105 -119 109 -127 103 -180 -3 -27 -13 -67 -23 -91 -17 -42 -18 -43 -55 -38 -82 11 -313 196 -476 382 -152 173 -174 190 -186 146 -10 -41 42 -122 181 -280 45 -52 82 -102 82 -112 0 -34 -13 -49 -53 -60 -59 -16 -113 8 -179 80 -65 70 -159 209 -192 283 -19 43 -35 61 -73 85 -97 62 -142 49 -99 -28 42 -75 78 -197 79 -268 1 -84 -6 -106 -43 -121 -31 -13 -37 -24 -20 -35 18 -11 11 -61 -11 -81 -17 -16 -37 -19 -108 -19 -80 0 -93 3 -162 37 -88 44 -195 130 -262 213 -55 68 -127 205 -127 242 0 13 -12 35 -27 50 -59 54 -169 124 -221 139 -50 15 -57 15 -98 -1 -65 -25 -90 -83 -63 -152 5 -15 54 -73 108 -128 141 -145 216 -279 187 -336 -10 -20 -20 -25 -64 -27 -69 -4 -133 31 -212 115 -98 104 -200 273 -200 330 0 48 -266 233 -336 233 -11 0 -31 -11 -44 -25 -20 -22 -22 -31 -18 -92 7 -87 47 -191 135 -345 l68 -120 87 6 88 6 52 -75 c29 -42 70 -104 91 -138 l38 -62 -58 -7 c-32 -5 -61 -9 -65 -10 -4 -2 19 -38 51 -80 95 -122 97 -132 35 -144 -81 -15 -161 37 -233 150 l-39 63 -103 7 c-108 8 -158 22 -198 59 -54 49 -145 216 -128 234 4 3 20 0 38 -6 34 -12 189 -16 189 -5 0 12 -137 198 -190 259 -174 200 -355 316 -408 263 -7 -7 -12 -31 -12 -54 0 -54 50 -151 150 -294 119 -169 140 -207 140 -260 0 -54 -22 -90 -54 -90 -47 0 -138 85 -278 260 -83 104 -135 156 -278 280 -174 151 -220 167 -220 77 0 -79 16 -108 86 -162 124 -94 284 -284 284 -336 0 -26 -60 -42 -138 -37 l-66 4 -54 60 c-144 157 -241 294 -261 370 -9 33 -29 58 -99 121 -147 135 -185 153 -253 117 -50 -26 -74 -98 -70 -211 1 -37 10 -52 79 -130 288 -328 456 -636 469 -858 9 -144 -19 -165 -126 -94 -221 148 -523 662 -596 1016 -19 90 -29 104 -102 140 -49 23 -56 24 -70 11 -13 -14 -12 -20 8 -59 41 -82 71 -183 76 -266 5 -76 4 -83 -19 -106 -13 -13 -30 -26 -38 -29 -12 -4 -12 -9 -1 -35 17 -41 2 -68 -45 -83 -173 -57 -462 130 -587 379 -41 83 -42 87 -42 185 1 83 5 110 23 151 69 152 180 215 299 172 46 -17 149 -94 183 -138 27 -33 36 -37 91 -43 77 -9 94 -16 153 -61 26 -20 49 -35 50 -33 1 2 7 38 13 82 29 207 142 286 294 205 70 -38 166 -123 240 -214 l53 -65 21 72 c34 118 79 168 152 168 73 0 161 -80 342 -312 29 -38 56 -68 61 -68 4 0 -13 48 -38 108 -38 88 -47 120 -50 183 -4 68 -2 78 20 103 33 38 92 45 150 17 61 -29 162 -111 316 -257 73 -70 135 -125 136 -123 2 2 -14 56 -35 119 -24 71 -39 134 -39 164 0 59 30 128 63 144 54 26 67 26 132 4z m-365 -402 c78 -53 177 -151 259 -254 39 -49 71 -93 71 -97 0 -5 -29 -6 -65 -2 -52 5 -69 3 -83 -10 -17 -16 -24 -8 -130 148 -100 146 -152 237 -152 266 0 12 28 -3 100 -51z m2148 -85 c-3 -3 -9 2 -12 12 -6 14 -5 15 5 6 7 -7 10 -15 7 -18z"/>
 <path d="M7616 5130 c-41 -13 -66 -39 -66 -71 0 -49 30 -171 50 -204 40 -65 158 -160 314 -255 l38 -23 -40 74 c-69 126 -85 188 -79 301 l5 97 -49 32 c-48 30 -113 59 -134 58 -5 -1 -23 -5 -39 -9z m112 -86 l42 -25 0 -82 c0 -45 5 -102 11 -126 5 -24 8 -45 6 -48 -9 -8 -119 102 -136 136 -10 20 -24 63 -31 95 -11 54 -11 61 6 73 21 15 43 10 102 -23z"/>
 <path d="M11270 5130 c-37 -9 -70 -41 -70 -69 0 -45 44 -190 68 -225 32 -46 139 -134 244 -200 41 -25 77 -46 81 -46 3 0 -14 39 -39 88 -68 135 -88 237 -63 325 12 46 10 49 -95 102 -73 37 -73 37 -126 25z m101 -81 l59 -32 0 -96 c0 -53 4 -111 9 -129 11 -37 8 -37 -56 15 -48 39 -87 99 -101 158 -24 97 -24 95 0 105 13 5 25 9 27 9 2 1 30 -13 62 -30z"/>
 <path d="M13074 5005 c-33 -49 -96 -95 -130 -95 -5 0 64 -75 153 -167 90 -91 165 -164 167 -162 2 2 10 56 17 120 17 153 5 212 -54 276 -23 25 -58 53 -78 64 l-37 18 -38 -54z m131 -109 c19 -38 25 -65 25 -112 0 -35 -4 -65 -8 -68 -5 -3 -46 33 -92 79 l-84 84 45 48 c42 47 45 48 66 33 13 -8 34 -37 48 -64z"/>
 <path d="M8450 4641 c-1 -31 72 -226 121 -322 64 -128 114 -203 168 -252 168 -152 -40 320 -233 528 -30 33 -55 54 -56 46z"/>
 <path d="M11993 3445 c-133 -36 -259 -138 -318 -259 -43 -87 -55 -149 -55 -280 0 -178 33 -269 133 -373 105 -109 200 -155 349 -168 241 -21 444 79 535 263 l38 76 4 163 c2 119 0 167 -9 178 -9 11 -35 15 -102 15 l-90 0 71 77 c90 98 93 120 22 186 -61 57 -154 104 -240 123 -84 18 -270 17 -338 -1z m329 -61 c75 -18 142 -52 198 -101 l44 -40 -58 -61 -59 -62 -35 32 c-66 58 -115 73 -232 73 -95 0 -110 -3 -156 -27 -85 -45 -144 -118 -144 -178 0 -20 5 -20 375 -20 l375 0 0 -77 c0 -234 -73 -369 -243 -453 -80 -39 -162 -54 -262 -47 -107 7 -175 31 -259 92 -130 93 -187 212 -189 390 -1 152 35 255 120 346 130 139 313 185 525 133z m-40 -230 c26 -9 66 -33 90 -54 l43 -39 -228 -1 -227 0 15 24 c18 28 97 72 151 85 44 10 88 6 156 -15z"/>
 <path d="M11880 2813 c1 -71 69 -156 159 -196 72 -32 180 -30 253 6 78 38 128 109 128 182 l0 35 -270 0 -270 0 0 -27z m458 -65 c-43 -78 -153 -115 -248 -83 -51 17 -140 89 -140 113 0 9 55 12 206 12 l205 0 -23 -42z"/>
 <path d="M13233 3446 c-23 -7 -62 -25 -87 -39 l-46 -26 0 23 c0 12 -5 27 -12 34 -17 17 -269 17 -286 0 -17 -17 -17 -1409 0 -1426 17 -17 269 -17 286 0 9 9 12 72 12 220 l0 208 53 -30 c113 -63 309 -64 444 0 73 34 181 131 221 199 44 75 62 162 62 296 0 137 -15 209 -61 296 -43 81 -150 181 -236 221 -63 30 -77 32 -188 35 -81 2 -133 -2 -162 -11z m272 -61 c156 -44 289 -206 316 -385 37 -248 -78 -468 -289 -551 -46 -18 -78 -23 -162 -23 -95 -1 -110 2 -162 27 -34 17 -77 50 -107 83 l-51 56 0 -266 0 -266 -100 0 -100 0 0 665 0 665 100 0 100 0 0 -66 0 -65 58 45 c125 99 245 123 397 81z"/>
 <path d="M13280 3221 c-60 -12 -109 -42 -154 -92 -55 -61 -76 -121 -76 -215 0 -181 117 -314 275 -314 74 0 116 13 173 54 144 102 170 335 51 470 -65 74 -179 115 -269 97z m106 -66 c89 -26 161 -109 179 -208 16 -84 -42 -207 -120 -253 -70 -40 -102 -46 -163 -28 -79 22 -135 82 -163 174 -18 61 -20 77 -10 117 28 109 86 175 181 204 36 11 41 10 96 -6z"/>
 <path d="M6168 3433 c-24 -28 -518 -1267 -518 -1300 0 -50 11 -53 175 -53 132 0 154 2 167 18 8 9 87 191 174 404 88 214 162 388 165 388 3 0 77 -172 163 -382 87 -211 164 -393 172 -405 14 -22 20 -23 167 -23 168 0 177 3 177 57 0 30 -488 1268 -513 1301 -7 9 -52 12 -162 12 -132 0 -154 -2 -167 -17z m538 -676 l253 -628 -122 3 -121 3 -190 462 c-104 254 -193 460 -196 458 -4 -2 -92 -211 -196 -464 l-189 -461 -117 0 c-65 0 -118 3 -118 6 0 5 345 868 461 1152 l42 103 120 -3 120 -3 253 -628z"/>
 <path d="M7062 3438 c-17 -17 -17 -1029 0 -1046 17 -17 269 -17 286 0 17 17 17 1029 0 1046 -17 17 -269 17 -286 0z m248 -528 l0 -480 -100 0 -100 0 0 480 0 480 100 0 100 0 0 -480z"/>
 <path d="M7916 3428 c-8 -13 -125 -299 -260 -636 -245 -611 -265 -669 -234 -700 17 -17 312 -17 325 1 6 6 83 190 172 407 90 217 164 396 165 398 2 1 76 -177 166 -395 90 -219 167 -404 173 -410 13 -18 308 -18 325 -1 31 31 11 89 -234 700 -135 337 -252 623 -260 636 -14 21 -20 22 -169 22 -149 0 -155 -1 -169 -22z m539 -659 c138 -342 252 -625 253 -630 2 -5 -50 -9 -116 -9 l-120 0 -61 148 c-33 81 -119 288 -189 460 -71 172 -133 312 -138 311 -5 -2 -66 -143 -137 -314 -70 -170 -155 -376 -188 -457 l-61 -148 -120 0 c-66 0 -118 4 -116 9 2 5 115 288 253 630 l249 621 121 0 121 0 249 -621z"/>
 <path d="M8822 3438 c-17 -17 -17 -1029 0 -1046 17 -17 269 -17 286 0 17 17 17 1029 0 1046 -17 17 -269 17 -286 0z m238 -528 l0 -480 -100 0 -100 0 0 480 0 480 100 0 100 0 0 -480z"/>
 <path d="M10118 3433 c-22 -27 -448 -1257 -448 -1295 0 -55 9 -58 172 -58 142 0 148 1 162 23 7 12 69 181 136 375 68 193 125 351 126 349 2 -2 53 -165 115 -362 61 -198 116 -366 121 -372 13 -16 269 -18 284 -3 6 6 62 176 125 379 l114 368 127 -365 c71 -201 133 -371 139 -378 15 -19 299 -20 317 -2 7 7 12 27 12 46 0 40 -425 1268 -448 1295 -13 15 -34 17 -152 17 -98 0 -141 -4 -148 -12 -5 -7 -59 -172 -118 -366 -60 -194 -110 -349 -111 -345 -128 421 -217 701 -225 711 -7 8 -50 12 -148 12 -118 0 -139 -2 -152 -17z m387 -469 c72 -234 135 -426 140 -427 5 -1 68 190 139 425 l131 428 106 0 107 0 36 -102 c20 -57 119 -339 220 -628 l183 -525 -110 -3 c-61 -1 -114 1 -118 5 -4 4 -76 205 -160 446 -84 241 -156 434 -160 430 -4 -4 -68 -204 -142 -443 l-135 -435 -95 -3 -96 -3 -43 138 c-24 76 -86 276 -138 445 -52 169 -98 308 -101 308 -3 0 -75 -197 -158 -437 -84 -241 -156 -442 -160 -446 -4 -4 -57 -6 -118 -5 l-109 3 172 495 c95 272 194 555 220 628 l46 132 107 0 106 0 130 -426z"/>
 <path d="M7102 2310 c-54 -33 -72 -74 -72 -163 l0 -78 44 -47 45 -47 91 0 91 0 45 47 44 47 0 78 c0 89 -18 130 -72 163 -47 28 -169 28 -216 0z m176 -50 c41 -25 66 -81 58 -129 -6 -42 -48 -87 -93 -102 -42 -14 -90 1 -127 40 -74 77 -15 211 94 211 19 0 50 -9 68 -20z"/>
 <path d="M8832 2286 l-47 -44 -3 -79 c-3 -69 -1 -82 20 -113 41 -60 81 -80 161 -80 114 0 175 52 184 159 7 76 -9 121 -58 165 -38 35 -41 36 -125 36 l-85 0 -47 -44z m225 -50 c87 -95 -5 -240 -129 -205 -54 14 -88 60 -88 116 0 86 56 137 140 129 35 -3 51 -11 77 -40z"/>
 </g>

</svg>